<svg viewBox="0 0 243 269" fill="none" xmlns="http://www.w3.org/2000/svg">
<g filter="url(#filter0_d)">
<path d="M28.8042 79.3347L121.5 26.4538L214.196 79.3347V185.034L121.5 237.915L28.8042 185.034V79.3347Z" fill="white" stroke="#7FBA00" stroke-width="6"/>
<path d="M102.445 119.922H89.3594V130.444H101.42V135.352H89.3594V150H83.5488V114.99H102.445V119.922ZM129.862 150H124.198V146.045H124.101C122.457 149.072 119.901 150.586 116.435 150.586C110.526 150.586 107.572 147.038 107.572 139.941V125H113.236V139.355C113.236 143.848 114.97 146.094 118.437 146.094C120.113 146.094 121.488 145.475 122.562 144.238C123.653 143.001 124.198 141.382 124.198 139.38V125H129.862V150ZM159.525 150H153.861V135.913C153.861 131.242 152.209 128.906 148.905 128.906C147.18 128.906 145.756 129.557 144.633 130.859C143.51 132.145 142.948 133.773 142.948 135.742V150H137.26V125H142.948V129.15H143.046C144.918 125.993 147.619 124.414 151.151 124.414C153.869 124.414 155.945 125.301 157.377 127.075C158.809 128.833 159.525 131.38 159.525 134.717V150Z" fill="#7FBA00"/>
</g>
<defs>
<filter id="filter0_d" x="-14" y="0" width="271" height="268.369" filterUnits="userSpaceOnUse" color-interpolation-filters="sRGB">
<feFlood flood-opacity="0" result="BackgroundImageFix"/>
<feColorMatrix in="SourceAlpha" type="matrix" values="0 0 0 0 0 0 0 0 0 0 0 0 0 0 0 0 0 0 127 0"/>
<feOffset dy="2"/>
<feGaussianBlur stdDeviation="12.5"/>
<feColorMatrix type="matrix" values="0 0 0 0 0 0 0 0 0 0 0 0 0 0 0 0 0 0 0.35 0"/>
<feBlend mode="normal" in2="BackgroundImageFix" result="effect1_dropShadow"/>
<feBlend mode="normal" in="SourceGraphic" in2="effect1_dropShadow" result="shape"/>
</filter>
</defs>
</svg>