<?xml version="1.0" encoding="UTF-8" standalone="no"?>
<svg
   xmlns:dc="http://purl.org/dc/elements/1.1/"
   xmlns:cc="http://creativecommons.org/ns#"
   xmlns:rdf="http://www.w3.org/1999/02/22-rdf-syntax-ns#"
   xmlns:svg="http://www.w3.org/2000/svg"
   xmlns="http://www.w3.org/2000/svg"
   xmlns:sodipodi="http://sodipodi.sourceforge.net/DTD/sodipodi-0.dtd"
   xmlns:inkscape="http://www.inkscape.org/namespaces/inkscape"
   inkscape:version="1.0 (4035a4fb49, 2020-05-01)"
   height="617"
   width="1800"
   sodipodi:docname="hexa_lc.svg"
   id="svg101"
   version="1.1"
   fill="none"
   viewBox="0 0 1800 617">
  <metadata
     id="metadata105">
    <rdf:RDF>
      <cc:Work
         rdf:about="">
        <dc:format>image/svg+xml</dc:format>
        <dc:type
           rdf:resource="http://purl.org/dc/dcmitype/StillImage" />
        <dc:title></dc:title>
      </cc:Work>
    </rdf:RDF>
  </metadata>
  <sodipodi:namedview
     inkscape:current-layer="svg101"
     inkscape:window-maximized="1"
     inkscape:window-y="-8"
     inkscape:window-x="-8"
     inkscape:cy="308.5"
     inkscape:cx="941.59974"
     inkscape:zoom="0.70486111"
     showgrid="false"
     id="namedview103"
     inkscape:window-height="1017"
     inkscape:window-width="1920"
     inkscape:pageshadow="2"
     inkscape:pageopacity="0"
     guidetolerance="10"
     gridtolerance="10"
     objecttolerance="10"
     borderopacity="1"
     bordercolor="#666666"
     pagecolor="#ffffff" />
  <g
     transform="translate(180.019)"
     id="g6"
     filter="url(#filter0_d)">
    <path
       id="path2"
       stroke-width="6"
       stroke="#00a4ef"
       fill="#ffffff"
       d="M 435.232,355.852 569.48,279.267 703.728,355.852 V 508.961 L 569.48,585.546 435.232,508.961 Z" />
    <path
       id="path4"
       fill="#00a4ef"
       d="m 489.88,447.302 h -7.177 v -42.011 h 7.177 z m 36.328,0 h -6.796 v -16.904 c 0,-5.606 -1.983,-8.408 -5.948,-8.408 -2.07,0 -3.779,0.781 -5.127,2.343 -1.347,1.543 -2.021,3.497 -2.021,5.86 v 17.109 h -6.826 v -30 h 6.826 v 4.981 h 0.117 c 2.246,-3.789 5.488,-5.684 9.727,-5.684 3.261,0 5.752,1.065 7.47,3.193 1.719,2.11 2.578,5.166 2.578,9.17 z m 6.446,-0.937 v -6.299 c 2.539,1.934 5.342,2.9 8.408,2.9 4.101,0 6.152,-1.211 6.152,-3.633 0,-0.683 -0.176,-1.259 -0.527,-1.728 -0.352,-0.488 -0.83,-0.918 -1.436,-1.289 -0.586,-0.371 -1.289,-0.703 -2.109,-0.996 -0.801,-0.293 -1.699,-0.625 -2.695,-0.996 -1.231,-0.489 -2.344,-1.006 -3.34,-1.553 -0.977,-0.547 -1.797,-1.162 -2.461,-1.846 -0.645,-0.703 -1.133,-1.494 -1.465,-2.373 -0.332,-0.879 -0.498,-1.904 -0.498,-3.076 0,-1.445 0.342,-2.715 1.025,-3.809 0.684,-1.113 1.602,-2.041 2.754,-2.783 1.153,-0.761 2.461,-1.328 3.926,-1.699 1.465,-0.391 2.979,-0.586 4.541,-0.586 2.774,0 5.254,0.42 7.442,1.26 v 5.947 c -2.11,-1.445 -4.532,-2.168 -7.266,-2.168 -0.859,0 -1.641,0.088 -2.344,0.264 -0.683,0.176 -1.269,0.42 -1.758,0.732 -0.488,0.313 -0.869,0.694 -1.142,1.143 -0.274,0.43 -0.41,0.908 -0.41,1.435 0,0.645 0.136,1.192 0.41,1.641 0.273,0.449 0.674,0.85 1.201,1.201 0.547,0.332 1.191,0.645 1.934,0.938 0.761,0.273 1.63,0.576 2.607,0.908 1.289,0.527 2.441,1.064 3.457,1.611 1.035,0.547 1.914,1.172 2.637,1.875 0.722,0.684 1.279,1.485 1.67,2.403 0.39,0.898 0.586,1.972 0.586,3.222 0,1.524 -0.352,2.852 -1.055,3.985 -0.703,1.132 -1.641,2.07 -2.813,2.812 -1.172,0.742 -2.529,1.289 -4.072,1.641 -1.523,0.371 -3.135,0.556 -4.834,0.556 -3.281,0 -6.123,-0.547 -8.525,-1.64 z m 34.687,-3.487 h -0.117 v 18.223 h -6.797 v -43.799 h 6.797 v 5.274 h 0.117 c 2.324,-3.985 5.723,-5.977 10.196,-5.977 3.808,0 6.777,1.338 8.906,4.014 2.129,2.676 3.193,6.269 3.193,10.781 0,5 -1.201,9.004 -3.603,12.012 -2.403,3.008 -5.684,4.511 -9.844,4.511 -3.828,0 -6.777,-1.679 -8.848,-5.039 z m -0.176,-11.836 v 3.721 c 0,2.188 0.694,4.043 2.081,5.567 1.406,1.523 3.183,2.285 5.332,2.285 2.519,0 4.492,-0.977 5.918,-2.93 1.445,-1.973 2.167,-4.717 2.167,-8.232 0,-2.95 -0.673,-5.254 -2.021,-6.914 -1.328,-1.68 -3.135,-2.52 -5.42,-2.52 -2.422,0 -4.375,0.859 -5.859,2.578 -1.465,1.719 -2.198,3.867 -2.198,6.445 z m 32.842,-20.039 c -1.113,0 -2.07,-0.361 -2.871,-1.084 -0.781,-0.722 -1.172,-1.64 -1.172,-2.753 0,-1.114 0.391,-2.041 1.172,-2.784 0.801,-0.742 1.758,-1.113 2.871,-1.113 1.153,0 2.129,0.371 2.93,1.113 0.801,0.743 1.201,1.67 1.201,2.784 0,1.054 -0.4,1.962 -1.201,2.724 -0.801,0.742 -1.777,1.113 -2.93,1.113 z m 3.369,36.299 h -6.797 v -30 h 6.797 z m 26.309,-23.525 c -0.82,-0.645 -2.002,-0.967 -3.545,-0.967 -2.012,0 -3.691,0.908 -5.039,2.725 -1.348,1.816 -2.022,4.287 -2.022,7.412 v 14.355 h -6.796 v -30 h 6.796 v 6.182 h 0.118 c 0.664,-2.109 1.679,-3.75 3.047,-4.922 1.386,-1.191 2.929,-1.787 4.628,-1.787 1.231,0 2.168,0.185 2.813,0.557 z m 29.678,10.371 h -20.45 c 0.079,2.773 0.928,4.912 2.549,6.416 1.641,1.504 3.887,2.256 6.739,2.256 3.203,0 6.142,-0.957 8.818,-2.871 v 5.478 c -2.734,1.719 -6.348,2.578 -10.84,2.578 -4.414,0 -7.881,-1.357 -10.4,-4.072 -2.5,-2.734 -3.75,-6.572 -3.75,-11.514 0,-4.668 1.377,-8.466 4.131,-11.396 2.773,-2.949 6.211,-4.424 10.312,-4.424 4.102,0 7.275,1.318 9.522,3.955 2.246,2.637 3.369,6.299 3.369,10.987 z m -6.563,-4.805 c -0.019,-2.441 -0.596,-4.336 -1.728,-5.683 -1.133,-1.368 -2.696,-2.051 -4.688,-2.051 -1.953,0 -3.613,0.713 -4.98,2.139 -1.348,1.425 -2.178,3.291 -2.491,5.595 z" />
  </g>
  <path
     id="path8"
     fill-opacity="0.15"
     fill="#00a4ef"
     d="m 1558.899,447.302 h -7.18 v -42.011 h 7.18 z m 36.33,0 h -6.8 v -16.904 c 0,-5.606 -1.98,-8.408 -5.95,-8.408 -2.07,0 -3.78,0.781 -5.12,2.343 -1.35,1.543 -2.02,3.497 -2.02,5.86 v 17.109 h -6.83 v -30 h 6.83 v 4.981 h 0.11 c 2.25,-3.789 5.49,-5.684 9.73,-5.684 3.26,0 5.75,1.065 7.47,3.193 1.72,2.11 2.58,5.166 2.58,9.17 z m 6.44,-0.937 v -6.299 c 2.54,1.934 5.35,2.9 8.41,2.9 4.1,0 6.15,-1.211 6.15,-3.633 0,-0.683 -0.17,-1.259 -0.52,-1.728 -0.35,-0.488 -0.83,-0.918 -1.44,-1.289 -0.58,-0.371 -1.29,-0.703 -2.11,-0.996 -0.8,-0.293 -1.7,-0.625 -2.69,-0.996 -1.23,-0.489 -2.35,-1.006 -3.34,-1.553 -0.98,-0.547 -1.8,-1.162 -2.46,-1.846 -0.65,-0.703 -1.14,-1.494 -1.47,-2.373 -0.33,-0.879 -0.5,-1.904 -0.5,-3.076 0,-1.445 0.34,-2.715 1.03,-3.809 0.68,-1.113 1.6,-2.041 2.75,-2.783 1.15,-0.761 2.46,-1.328 3.93,-1.699 1.46,-0.391 2.98,-0.586 4.54,-0.586 2.77,0 5.25,0.42 7.44,1.26 v 5.947 c -2.11,-1.445 -4.53,-2.168 -7.27,-2.168 -0.85,0 -1.64,0.088 -2.34,0.264 -0.68,0.176 -1.27,0.42 -1.76,0.732 -0.48,0.313 -0.87,0.694 -1.14,1.143 -0.27,0.43 -0.41,0.908 -0.41,1.435 0,0.645 0.14,1.192 0.41,1.641 0.27,0.449 0.67,0.85 1.2,1.201 0.55,0.332 1.19,0.645 1.94,0.938 0.76,0.273 1.63,0.576 2.6,0.908 1.29,0.527 2.44,1.064 3.46,1.611 1.04,0.547 1.91,1.172 2.64,1.875 0.72,0.684 1.28,1.485 1.67,2.403 0.39,0.898 0.58,1.972 0.58,3.222 0,1.524 -0.35,2.852 -1.05,3.985 -0.71,1.132 -1.64,2.07 -2.81,2.812 -1.18,0.742 -2.53,1.289 -4.08,1.641 -1.52,0.371 -3.13,0.556 -4.83,0.556 -3.28,0 -6.12,-0.547 -8.53,-1.64 z m 34.69,-3.487 h -0.12 v 18.223 h -6.79 v -43.799 h 6.79 v 5.274 h 0.12 c 2.33,-3.985 5.72,-5.977 10.2,-5.977 3.81,0 6.77,1.338 8.9,4.014 2.13,2.676 3.2,6.269 3.2,10.781 0,5 -1.21,9.004 -3.61,12.012 -2.4,3.008 -5.68,4.511 -9.84,4.511 -3.83,0 -6.78,-1.679 -8.85,-5.039 z m -0.17,-11.836 v 3.721 c 0,2.188 0.69,4.043 2.08,5.567 1.4,1.523 3.18,2.285 5.33,2.285 2.52,0 4.49,-0.977 5.92,-2.93 1.44,-1.973 2.16,-4.717 2.16,-8.232 0,-2.95 -0.67,-5.254 -2.02,-6.914 -1.33,-1.68 -3.13,-2.52 -5.42,-2.52 -2.42,0 -4.37,0.859 -5.86,2.578 -1.46,1.719 -2.19,3.867 -2.19,6.445 z m 32.84,-20.039 c -1.12,0 -2.07,-0.361 -2.87,-1.084 -0.79,-0.722 -1.18,-1.64 -1.18,-2.753 0,-1.114 0.39,-2.041 1.18,-2.784 0.8,-0.742 1.75,-1.113 2.87,-1.113 1.15,0 2.13,0.371 2.93,1.113 0.8,0.743 1.2,1.67 1.2,2.784 0,1.054 -0.4,1.962 -1.2,2.724 -0.8,0.742 -1.78,1.113 -2.93,1.113 z m 3.37,36.299 h -6.8 v -30 h 6.8 z m 26.3,-23.525 c -0.82,-0.645 -2,-0.967 -3.54,-0.967 -2.01,0 -3.69,0.908 -5.04,2.725 -1.35,1.816 -2.02,4.287 -2.02,7.412 v 14.355 h -6.8 v -30 h 6.8 v 6.182 h 0.12 c 0.66,-2.109 1.68,-3.75 3.04,-4.922 1.39,-1.191 2.93,-1.787 4.63,-1.787 1.23,0 2.17,0.185 2.81,0.557 z m 29.68,10.371 h -20.45 c 0.08,2.773 0.93,4.912 2.55,6.416 1.64,1.504 3.89,2.256 6.74,2.256 3.2,0 6.14,-0.957 8.82,-2.871 v 5.478 c -2.74,1.719 -6.35,2.578 -10.84,2.578 -4.41,0 -7.88,-1.357 -10.4,-4.072 -2.5,-2.734 -3.75,-6.572 -3.75,-11.514 0,-4.668 1.38,-8.466 4.13,-11.396 2.77,-2.949 6.21,-4.424 10.31,-4.424 4.1,0 7.28,1.318 9.52,3.955 2.25,2.637 3.37,6.299 3.37,10.987 z m -6.56,-4.805 c -0.02,-2.441 -0.6,-4.336 -1.73,-5.683 -1.13,-1.368 -2.69,-2.051 -4.69,-2.051 -1.95,0 -3.61,0.713 -4.98,2.139 -1.34,1.425 -2.17,3.291 -2.49,5.595 z" />
  <path
     id="path10"
     stroke-width="6"
     stroke-opacity="0.15"
     stroke="#00a4ef"
     d="m 1504.249,355.852 134.25,-76.585 134.25,76.585 v 153.109 l -134.25,76.585 -134.25,-76.585 z" />
  <path
     id="path12"
     fill-opacity="0.3"
     fill="#00a4ef"
     d="m 1114.899,194.489 h -7.177 v -42.012 h 7.177 z m 36.328,0 h -6.796 v -16.904 c 0,-5.606 -1.983,-8.408 -5.948,-8.408 -2.07,0 -3.779,0.781 -5.127,2.343 -1.347,1.543 -2.021,3.496 -2.021,5.86 v 17.109 h -6.826 v -30 h 6.826 v 4.98 h 0.117 c 2.246,-3.789 5.488,-5.683 9.727,-5.683 3.261,0 5.752,1.064 7.47,3.193 1.719,2.11 2.578,5.166 2.578,9.17 z m 6.446,-0.937 v -6.299 c 2.539,1.933 5.342,2.9 8.408,2.9 4.101,0 6.152,-1.211 6.152,-3.633 0,-0.683 -0.176,-1.26 -0.527,-1.728 -0.352,-0.489 -0.83,-0.918 -1.436,-1.289 -0.586,-0.371 -1.289,-0.703 -2.109,-0.996 -0.801,-0.293 -1.699,-0.625 -2.695,-0.997 -1.231,-0.488 -2.344,-1.005 -3.34,-1.552 -0.977,-0.547 -1.797,-1.162 -2.461,-1.846 -0.645,-0.703 -1.133,-1.494 -1.465,-2.373 -0.332,-0.879 -0.498,-1.904 -0.498,-3.076 0,-1.445 0.342,-2.715 1.025,-3.809 0.684,-1.113 1.602,-2.041 2.754,-2.783 1.153,-0.762 2.461,-1.328 3.926,-1.699 1.465,-0.391 2.979,-0.586 4.541,-0.586 2.774,0 5.254,0.42 7.442,1.26 v 5.947 c -2.11,-1.445 -4.532,-2.168 -7.266,-2.168 -0.859,0 -1.641,0.088 -2.344,0.264 -0.683,0.175 -1.269,0.42 -1.758,0.732 -0.488,0.313 -0.869,0.693 -1.142,1.143 -0.274,0.429 -0.41,0.908 -0.41,1.435 0,0.645 0.136,1.192 0.41,1.641 0.273,0.449 0.674,0.849 1.201,1.201 0.547,0.332 1.191,0.644 1.934,0.937 0.761,0.274 1.63,0.577 2.607,0.909 1.289,0.527 2.441,1.064 3.457,1.611 1.035,0.547 1.914,1.172 2.637,1.875 0.722,0.684 1.279,1.484 1.67,2.402 0.39,0.899 0.586,1.973 0.586,3.223 0,1.523 -0.352,2.852 -1.055,3.984 -0.703,1.133 -1.641,2.071 -2.813,2.813 -1.172,0.742 -2.529,1.289 -4.072,1.64 -1.523,0.372 -3.135,0.557 -4.834,0.557 -3.281,0 -6.123,-0.547 -8.525,-1.64 z m 34.686,-3.487 h -0.12 v 18.223 h -6.79 v -43.799 h 6.79 v 5.273 h 0.12 c 2.33,-3.984 5.72,-5.976 10.2,-5.976 3.81,0 6.77,1.338 8.9,4.014 2.13,2.675 3.2,6.269 3.2,10.781 0,5 -1.21,9.004 -3.61,12.012 -2.4,3.007 -5.68,4.511 -9.84,4.511 -3.83,0 -6.78,-1.679 -8.85,-5.039 z m -0.17,-11.836 v 3.721 c 0,2.187 0.69,4.043 2.08,5.566 1.4,1.524 3.18,2.286 5.33,2.286 2.52,0 4.49,-0.977 5.92,-2.93 1.44,-1.973 2.16,-4.717 2.16,-8.233 0,-2.949 -0.67,-5.254 -2.02,-6.914 -1.33,-1.679 -3.13,-2.519 -5.42,-2.519 -2.42,0 -4.37,0.859 -5.86,2.578 -1.46,1.719 -2.19,3.867 -2.19,6.445 z m 32.84,-20.039 c -1.12,0 -2.07,-0.361 -2.87,-1.084 -0.79,-0.722 -1.18,-1.64 -1.18,-2.754 0,-1.113 0.39,-2.041 1.18,-2.783 0.8,-0.742 1.75,-1.113 2.87,-1.113 1.15,0 2.13,0.371 2.93,1.113 0.8,0.742 1.2,1.67 1.2,2.783 0,1.055 -0.4,1.963 -1.2,2.725 -0.8,0.742 -1.78,1.113 -2.93,1.113 z m 3.37,36.299 h -6.8 v -30 h 6.8 z m 26.3,-23.525 c -0.82,-0.645 -2,-0.967 -3.54,-0.967 -2.01,0 -3.69,0.908 -5.04,2.724 -1.35,1.817 -2.02,4.288 -2.02,7.413 v 14.355 h -6.8 v -30 h 6.8 v 6.182 h 0.12 c 0.66,-2.11 1.68,-3.75 3.04,-4.922 1.39,-1.192 2.93,-1.787 4.63,-1.787 1.23,0 2.17,0.185 2.81,0.556 z m 29.68,10.371 h -20.45 c 0.08,2.773 0.93,4.912 2.55,6.416 1.64,1.504 3.89,2.256 6.74,2.256 3.2,0 6.14,-0.957 8.82,-2.872 v 5.479 c -2.74,1.719 -6.35,2.578 -10.84,2.578 -4.41,0 -7.88,-1.357 -10.4,-4.072 -2.5,-2.735 -3.75,-6.572 -3.75,-11.514 0,-4.668 1.38,-8.467 4.13,-11.396 2.77,-2.95 6.21,-4.424 10.31,-4.424 4.1,0 7.28,1.318 9.52,3.955 2.25,2.637 3.37,6.299 3.37,10.986 z m -6.56,-4.805 c -0.02,-2.441 -0.6,-4.336 -1.73,-5.684 -1.13,-1.367 -2.69,-2.05 -4.69,-2.05 -1.95,0 -3.61,0.713 -4.98,2.138 -1.34,1.426 -2.17,3.291 -2.49,5.596 z" />
  <path
     id="path14"
     stroke-width="6"
     stroke-opacity="0.3"
     stroke="#00a4ef"
     d="m 1060.251,103.039 134.248,-76.5852 134.25,76.5852 v 153.109 l -134.25,76.585 -134.248,-76.585 z" />
  <g
     transform="translate(180.019)"
     id="g20"
     opacity="0.3">
    <path
       id="path16"
       fill-opacity="0.3"
       fill="#00a4ef"
       d="m 49.8805,194.489 h -7.1777 v -42.012 h 7.1777 z m 36.3281,0 h -6.7968 v -16.904 c 0,-5.606 -1.9824,-8.408 -5.9473,-8.408 -2.0703,0 -3.7793,0.781 -5.1269,2.343 -1.3477,1.543 -2.0215,3.496 -2.0215,5.86 v 17.109 h -6.8262 v -30 h 6.8262 v 4.98 h 0.1172 c 2.2461,-3.789 5.4882,-5.683 9.7265,-5.683 3.2617,0 5.752,1.064 7.4707,3.193 1.7188,2.11 2.5781,5.166 2.5781,9.17 z m 6.4454,-0.937 v -6.299 c 2.539,1.933 5.3418,2.9 8.408,2.9 4.102,0 6.153,-1.211 6.153,-3.633 0,-0.683 -0.176,-1.26 -0.528,-1.728 -0.351,-0.489 -0.83,-0.918 -1.435,-1.289 -0.586,-0.371 -1.289,-0.703 -2.11,-0.996 -0.801,-0.293 -1.699,-0.625 -2.695,-0.997 -1.2305,-0.488 -2.3438,-1.005 -3.3399,-1.552 -0.9766,-0.547 -1.7969,-1.162 -2.461,-1.846 -0.6445,-0.703 -1.1328,-1.494 -1.4648,-2.373 -0.332,-0.879 -0.498,-1.904 -0.498,-3.076 0,-1.445 0.3418,-2.715 1.0253,-3.809 0.6836,-1.113 1.6016,-2.041 2.754,-2.783 1.1523,-0.762 2.4609,-1.328 3.9254,-1.699 1.465,-0.391 2.979,-0.586 4.541,-0.586 2.774,0 5.254,0.42 7.442,1.26 v 5.947 c -2.11,-1.445 -4.531,-2.168 -7.266,-2.168 -0.859,0 -1.64,0.088 -2.344,0.264 -0.683,0.175 -1.269,0.42 -1.757,0.732 -0.489,0.313 -0.87,0.693 -1.143,1.143 -0.2734,0.429 -0.4102,0.908 -0.4102,1.435 0,0.645 0.1368,1.192 0.4102,1.641 0.273,0.449 0.674,0.849 1.201,1.201 0.547,0.332 1.192,0.644 1.934,0.937 0.761,0.274 1.631,0.577 2.607,0.909 1.289,0.527 2.442,1.064 3.457,1.611 1.035,0.547 1.914,1.172 2.637,1.875 0.723,0.684 1.279,1.484 1.67,2.402 0.39,0.899 0.586,1.973 0.586,3.223 0,1.523 -0.352,2.852 -1.055,3.984 -0.703,1.133 -1.641,2.071 -2.812,2.813 -1.172,0.742 -2.53,1.289 -4.073,1.64 -1.523,0.372 -3.134,0.557 -4.834,0.557 -3.2809,0 -6.1227,-0.547 -8.525,-1.64 z m 34.687,-3.487 h -0.117 v 18.223 h -6.797 v -43.799 h 6.797 v 5.273 h 0.117 c 2.325,-3.984 5.723,-5.976 10.196,-5.976 3.808,0 6.777,1.338 8.906,4.014 2.129,2.675 3.193,6.269 3.193,10.781 0,5 -1.201,9.004 -3.603,12.012 -2.402,3.007 -5.684,4.511 -9.844,4.511 -3.828,0 -6.777,-1.679 -8.848,-5.039 z m -0.175,-11.836 v 3.721 c 0,2.187 0.693,4.043 2.08,5.566 1.406,1.524 3.183,2.286 5.332,2.286 2.519,0 4.492,-0.977 5.918,-2.93 1.445,-1.973 2.168,-4.717 2.168,-8.233 0,-2.949 -0.674,-5.254 -2.022,-6.914 -1.328,-1.679 -3.135,-2.519 -5.42,-2.519 -2.422,0 -4.375,0.859 -5.859,2.578 -1.465,1.719 -2.197,3.867 -2.197,6.445 z m 32.841,-20.039 c -1.113,0 -2.07,-0.361 -2.871,-1.084 -0.781,-0.722 -1.171,-1.64 -1.171,-2.754 0,-1.113 0.39,-2.041 1.171,-2.783 0.801,-0.742 1.758,-1.113 2.871,-1.113 1.153,0 2.129,0.371 2.93,1.113 0.801,0.742 1.201,1.67 1.201,2.783 0,1.055 -0.4,1.963 -1.201,2.725 -0.801,0.742 -1.777,1.113 -2.93,1.113 z m 3.37,36.299 h -6.797 v -30 h 6.797 z m 26.308,-23.525 c -0.82,-0.645 -2.002,-0.967 -3.545,-0.967 -2.011,0 -3.691,0.908 -5.039,2.724 -1.347,1.817 -2.021,4.288 -2.021,7.413 v 14.355 h -6.797 v -30 h 6.797 v 6.182 h 0.117 c 0.664,-2.11 1.68,-3.75 3.047,-4.922 1.387,-1.192 2.929,-1.787 4.629,-1.787 1.23,0 2.168,0.185 2.812,0.556 z m 29.678,10.371 h -20.449 c 0.078,2.773 0.927,4.912 2.549,6.416 1.64,1.504 3.886,2.256 6.738,2.256 3.203,0 6.142,-0.957 8.818,-2.872 v 5.479 c -2.734,1.719 -6.347,2.578 -10.84,2.578 -4.414,0 -7.881,-1.357 -10.4,-4.072 -2.5,-2.735 -3.75,-6.572 -3.75,-11.514 0,-4.668 1.377,-8.467 4.131,-11.396 2.773,-2.95 6.211,-4.424 10.312,-4.424 4.102,0 7.276,1.318 9.522,3.955 2.246,2.637 3.369,6.299 3.369,10.986 z M 212.8,176.53 c -0.019,-2.441 -0.595,-4.336 -1.728,-5.684 -1.133,-1.367 -2.695,-2.05 -4.688,-2.05 -1.953,0 -3.613,0.713 -4.98,2.138 -1.348,1.426 -2.178,3.291 -2.49,5.596 z" />
    <path
       id="path18"
       stroke-width="6"
       stroke-opacity="0.3"
       stroke="#00a4ef"
       d="M -4.7677,103.039 129.48,26.4538 263.728,103.039 V 256.148 L 129.48,332.733 -4.7677,256.148 Z" />
  </g>
  <g
     transform="translate(180.019)"
     id="g26"
     filter="url(#filter1_d)">
    <path
       id="path22"
       stroke-width="6"
       stroke="#7fba00"
       fill="#ffffff"
       d="M 582.392,103.039 716.64,26.4538 850.888,103.039 V 256.148 L 716.64,332.733 582.392,256.148 Z" />
    <path
       id="path24"
       fill="#7fba00"
       d="m 670.175,194.489 h -23.262 v -42.012 h 6.973 V 188.6 h 16.289 z m 30.733,-13.154 h -20.45 c 0.079,2.773 0.928,4.912 2.549,6.416 1.641,1.504 3.887,2.255 6.739,2.255 3.203,0 6.142,-0.957 8.818,-2.871 v 5.479 c -2.735,1.719 -6.348,2.578 -10.84,2.578 -4.414,0 -7.881,-1.357 -10.4,-4.072 -2.5,-2.735 -3.75,-6.573 -3.75,-11.514 0,-4.668 1.377,-8.467 4.13,-11.396 2.774,-2.95 6.211,-4.424 10.313,-4.424 4.102,0 7.275,1.318 9.521,3.955 2.247,2.637 3.37,6.299 3.37,10.986 z m -6.563,-4.805 c -0.019,-2.441 -0.596,-4.336 -1.728,-5.684 -1.133,-1.367 -2.696,-2.05 -4.688,-2.05 -1.953,0 -3.613,0.712 -4.98,2.138 -1.348,1.426 -2.178,3.291 -2.491,5.596 z m 36.065,17.959 h -6.592 v -4.688 h -0.117 c -2.071,3.594 -5.108,5.391 -9.112,5.391 -2.949,0 -5.263,-0.801 -6.943,-2.402 -1.66,-1.602 -2.49,-3.721 -2.49,-6.358 0,-5.664 3.261,-8.965 9.785,-9.902 l 8.906,-1.26 c 0,-4.277 -2.031,-6.416 -6.094,-6.416 -3.574,0 -6.797,1.231 -9.668,3.692 v -5.948 c 3.164,-1.875 6.817,-2.812 10.957,-2.812 7.579,0 11.368,3.73 11.368,11.191 z m -6.563,-14.736 -6.299,0.878 c -1.953,0.254 -3.427,0.733 -4.424,1.436 -0.976,0.684 -1.464,1.895 -1.464,3.633 0,1.269 0.449,2.314 1.347,3.135 0.918,0.8 2.139,1.201 3.662,1.201 2.071,0 3.78,-0.723 5.127,-2.168 1.367,-1.465 2.051,-3.301 2.051,-5.508 z m 32.285,-8.789 c -0.82,-0.645 -2.002,-0.967 -3.545,-0.967 -2.011,0 -3.691,0.908 -5.039,2.724 -1.347,1.817 -2.021,4.287 -2.021,7.412 v 14.356 h -6.797 v -30 h 6.797 v 6.182 h 0.117 c 0.664,-2.11 1.68,-3.75 3.047,-4.922 1.387,-1.192 2.93,-1.787 4.629,-1.787 1.23,0 2.168,0.185 2.812,0.556 z m 31.524,23.525 h -6.797 v -16.904 c 0,-5.606 -1.983,-8.409 -5.947,-8.409 -2.071,0 -3.78,0.782 -5.127,2.344 -1.348,1.543 -2.022,3.496 -2.022,5.86 v 17.109 h -6.826 v -30 h 6.826 v 4.98 h 0.117 c 2.246,-3.789 5.489,-5.683 9.727,-5.683 3.262,0 5.752,1.064 7.471,3.193 1.718,2.11 2.578,5.166 2.578,9.17 z" />
  </g>
  <path
     id="path28"
     fill-opacity="0.3"
     fill="#7fba00"
     d="m 1295.039,447.489 h -23.27 v -42.012 h 6.98 V 441.6 h 16.29 z m 30.73,-13.154 h -20.45 c 0.08,2.773 0.93,4.912 2.55,6.416 1.64,1.504 3.88,2.255 6.74,2.255 3.2,0 6.14,-0.957 8.81,-2.871 v 5.479 c -2.73,1.719 -6.34,2.578 -10.84,2.578 -4.41,0 -7.88,-1.357 -10.4,-4.072 -2.5,-2.735 -3.75,-6.573 -3.75,-11.514 0,-4.668 1.38,-8.467 4.13,-11.396 2.78,-2.95 6.22,-4.424 10.32,-4.424 4.1,0 7.27,1.318 9.52,3.955 2.24,2.637 3.37,6.299 3.37,10.986 z m -6.56,-4.805 c -0.02,-2.441 -0.6,-4.336 -1.73,-5.684 -1.14,-1.367 -2.7,-2.05 -4.69,-2.05 -1.95,0 -3.61,0.712 -4.98,2.138 -1.35,1.426 -2.18,3.291 -2.49,5.596 z m 36.06,17.959 h -6.59 v -4.688 h -0.12 c -2.07,3.594 -5.11,5.391 -9.11,5.391 -2.95,0 -5.26,-0.801 -6.94,-2.402 -1.66,-1.602 -2.49,-3.721 -2.49,-6.358 0,-5.664 3.26,-8.965 9.78,-9.902 l 8.91,-1.26 c 0,-4.277 -2.03,-6.416 -6.1,-6.416 -3.57,0 -6.79,1.231 -9.66,3.692 v -5.948 c 3.16,-1.875 6.81,-2.812 10.95,-2.812 7.58,0 11.37,3.73 11.37,11.191 z m -6.56,-14.736 -6.3,0.878 c -1.95,0.254 -3.43,0.733 -4.43,1.436 -0.97,0.684 -1.46,1.895 -1.46,3.633 0,1.269 0.45,2.314 1.35,3.135 0.92,0.8 2.14,1.201 3.66,1.201 2.07,0 3.78,-0.723 5.13,-2.168 1.36,-1.465 2.05,-3.301 2.05,-5.508 z m 32.28,-8.789 c -0.82,-0.645 -2,-0.967 -3.54,-0.967 -2.01,0 -3.69,0.908 -5.04,2.724 -1.35,1.817 -2.02,4.287 -2.02,7.412 v 14.356 h -6.8 v -30 h 6.8 v 6.182 h 0.11 c 0.67,-2.11 1.68,-3.75 3.05,-4.922 1.39,-1.192 2.93,-1.787 4.63,-1.787 1.23,0 2.17,0.185 2.81,0.556 z m 31.53,23.525 h -6.8 v -16.904 c 0,-5.606 -1.98,-8.409 -5.95,-8.409 -2.07,0 -3.78,0.782 -5.13,2.344 -1.34,1.543 -2.02,3.496 -2.02,5.86 v 17.109 h -6.82 v -30 h 6.82 v 4.98 h 0.12 c 2.25,-3.789 5.49,-5.683 9.73,-5.683 3.26,0 5.75,1.064 7.47,3.193 1.72,2.11 2.58,5.166 2.58,9.17 z" />
  <path
     id="path30"
     stroke-width="6"
     stroke-opacity="0.3"
     stroke="#7fba00"
     d="m 1207.249,356.039 134.25,-76.585 134.25,76.585 v 153.109 l -134.25,76.585 -134.25,-76.585 z" />
  <path
     id="path32"
     fill-opacity="0.3"
     fill="#7fba00"
     d="m 409.034,447.489 h -23.261 v -42.012 h 6.972 V 441.6 h 16.289 z m 30.733,-13.154 h -20.45 c 0.079,2.773 0.928,4.912 2.549,6.416 1.641,1.504 3.887,2.255 6.739,2.255 3.203,0 6.142,-0.957 8.818,-2.871 v 5.479 c -2.734,1.719 -6.348,2.578 -10.84,2.578 -4.414,0 -7.881,-1.357 -10.4,-4.072 -2.5,-2.735 -3.75,-6.573 -3.75,-11.514 0,-4.668 1.377,-8.467 4.131,-11.396 2.773,-2.95 6.211,-4.424 10.312,-4.424 4.102,0 7.275,1.318 9.522,3.955 2.246,2.637 3.369,6.299 3.369,10.986 z m -6.563,-4.805 c -0.019,-2.441 -0.595,-4.336 -1.728,-5.684 -1.133,-1.367 -2.696,-2.05 -4.688,-2.05 -1.953,0 -3.613,0.712 -4.98,2.138 -1.348,1.426 -2.178,3.291 -2.491,5.596 z m 36.065,17.959 h -6.592 v -4.688 h -0.117 c -2.071,3.594 -5.108,5.391 -9.112,5.391 -2.949,0 -5.263,-0.801 -6.943,-2.402 -1.66,-1.602 -2.49,-3.721 -2.49,-6.358 0,-5.664 3.261,-8.965 9.785,-9.902 l 8.906,-1.26 c 0,-4.277 -2.031,-6.416 -6.094,-6.416 -3.574,0 -6.796,1.231 -9.668,3.692 v -5.948 c 3.165,-1.875 6.817,-2.812 10.957,-2.812 7.579,0 11.368,3.73 11.368,11.191 z m -6.563,-14.736 -6.299,0.878 c -1.953,0.254 -3.427,0.733 -4.423,1.436 -0.977,0.684 -1.465,1.895 -1.465,3.633 0,1.269 0.449,2.314 1.347,3.135 0.918,0.8 2.139,1.201 3.662,1.201 2.071,0 3.78,-0.723 5.127,-2.168 1.368,-1.465 2.051,-3.301 2.051,-5.508 z m 32.285,-8.789 c -0.82,-0.645 -2.002,-0.967 -3.545,-0.967 -2.011,0 -3.691,0.908 -5.039,2.724 -1.347,1.817 -2.021,4.287 -2.021,7.412 v 14.356 h -6.797 v -30 h 6.797 v 6.182 h 0.117 c 0.664,-2.11 1.68,-3.75 3.047,-4.922 1.387,-1.192 2.93,-1.787 4.629,-1.787 1.23,0 2.168,0.185 2.812,0.556 z m 31.524,23.525 h -6.797 v -16.904 c 0,-5.606 -1.983,-8.409 -5.947,-8.409 -2.071,0 -3.78,0.782 -5.127,2.344 -1.348,1.543 -2.022,3.496 -2.022,5.86 v 17.109 h -6.826 v -30 h 6.826 v 4.98 h 0.117 c 2.246,-3.789 5.489,-5.683 9.727,-5.683 3.262,0 5.752,1.064 7.471,3.193 1.718,2.11 2.578,5.166 2.578,9.17 z" />
  <path
     id="path34"
     stroke-width="6"
     stroke-opacity="0.3"
     stroke="#7fba00"
     d="m 321.251,356.039 134.248,-76.585 134.248,76.585 V 509.148 L 455.499,585.733 321.251,509.148 Z" />
  <g
     transform="translate(180.019)"
     id="g40"
     filter="url(#filter2_d)">
    <path
       id="path36"
       stroke-width="6"
       stroke="#f25022"
       fill="#ffffff"
       d="m 732.232,356.039 134.248,-76.585 134.25,76.585 V 509.148 L 866.48,585.733 732.232,509.148 Z" />
    <path
       id="path38"
       fill="#f25022"
       d="m 762.4,447.489 v -42.012 h 12.129 c 15.488,0 23.232,6.826 23.232,20.479 0,6.484 -2.148,11.699 -6.445,15.644 -4.297,3.926 -10.059,5.889 -17.285,5.889 z m 6.943,-36.094 V 441.6 h 5.567 c 4.902,0 8.711,-1.347 11.426,-4.043 2.734,-2.695 4.101,-6.504 4.101,-11.425 0,-9.825 -5.088,-14.737 -15.264,-14.737 z m 59.762,22.94 h -20.449 c 0.078,2.773 0.928,4.912 2.549,6.416 1.64,1.504 3.886,2.256 6.738,2.256 3.203,0 6.143,-0.957 8.818,-2.872 v 5.479 c -2.734,1.719 -6.347,2.578 -10.839,2.578 -4.415,0 -7.881,-1.357 -10.401,-4.072 -2.5,-2.735 -3.75,-6.572 -3.75,-11.514 0,-4.668 1.377,-8.467 4.131,-11.396 2.773,-2.95 6.211,-4.424 10.313,-4.424 4.101,0 7.275,1.318 9.521,3.955 2.246,2.637 3.369,6.299 3.369,10.986 z m -6.562,-4.805 c -0.02,-2.441 -0.596,-4.336 -1.729,-5.684 -1.133,-1.367 -2.695,-2.05 -4.687,-2.05 -1.954,0 -3.614,0.713 -4.981,2.138 -1.348,1.426 -2.178,3.291 -2.49,5.596 z m 37.877,-12.041 -11.602,30 h -7.353 l -11.045,-30 h 7.382 l 6.651,20.977 c 0.508,1.543 0.82,2.89 0.937,4.043 h 0.088 c 0.176,-1.446 0.449,-2.754 0.82,-3.926 l 6.973,-21.094 z m 28.56,16.846 h -20.449 c 0.078,2.773 0.928,4.912 2.549,6.416 1.64,1.504 3.886,2.256 6.738,2.256 3.203,0 6.143,-0.957 8.818,-2.872 v 5.479 c -2.734,1.719 -6.347,2.578 -10.839,2.578 -4.415,0 -7.881,-1.357 -10.401,-4.072 -2.5,-2.735 -3.75,-6.572 -3.75,-11.514 0,-4.668 1.377,-8.467 4.131,-11.396 2.773,-2.95 6.211,-4.424 10.313,-4.424 4.101,0 7.275,1.318 9.521,3.955 2.246,2.637 3.369,6.299 3.369,10.986 z m -6.562,-4.805 c -0.02,-2.441 -0.596,-4.336 -1.729,-5.684 -1.133,-1.367 -2.695,-2.05 -4.687,-2.05 -1.954,0 -3.614,0.713 -4.981,2.138 -1.348,1.426 -2.178,3.291 -2.49,5.596 z m 18.863,17.959 h -6.826 v -44.414 h 6.826 z m 21.178,0.703 c -4.629,0 -8.33,-1.396 -11.104,-4.189 -2.754,-2.813 -4.131,-6.534 -4.131,-11.162 0,-5.039 1.436,-8.975 4.307,-11.807 2.891,-2.832 6.777,-4.248 11.66,-4.248 4.688,0 8.34,1.377 10.957,4.131 2.617,2.754 3.926,6.572 3.926,11.455 0,4.785 -1.416,8.623 -4.248,11.513 -2.813,2.872 -6.602,4.307 -11.367,4.307 z m 0.322,-25.986 c -2.656,0 -4.756,0.928 -6.299,2.783 -1.543,1.855 -2.314,4.414 -2.314,7.676 0,3.144 0.781,5.625 2.343,7.441 1.563,1.797 3.653,2.696 6.27,2.696 2.676,0 4.726,-0.889 6.152,-2.667 1.446,-1.777 2.168,-4.306 2.168,-7.587 0,-3.301 -0.722,-5.85 -2.168,-7.647 -1.426,-1.797 -3.476,-2.695 -6.152,-2.695 z m 28.15,20.859 h -0.117 v 18.223 h -6.797 v -43.799 h 6.797 v 5.273 h 0.117 c 2.325,-3.984 5.723,-5.976 10.196,-5.976 3.808,0 6.777,1.338 8.906,4.014 2.129,2.675 3.193,6.269 3.193,10.781 0,5 -1.201,9.004 -3.603,12.012 -2.403,3.007 -5.684,4.511 -9.844,4.511 -3.828,0 -6.777,-1.679 -8.848,-5.039 z m -0.175,-11.836 v 3.721 c 0,2.187 0.693,4.043 2.08,5.566 1.406,1.524 3.183,2.286 5.332,2.286 2.519,0 4.492,-0.977 5.918,-2.93 1.445,-1.973 2.168,-4.717 2.168,-8.233 0,-2.949 -0.674,-5.254 -2.022,-6.914 -1.328,-1.679 -3.135,-2.519 -5.42,-2.519 -2.422,0 -4.375,0.859 -5.859,2.578 -1.465,1.719 -2.197,3.867 -2.197,6.445 z" />
  </g>
  <path
     id="path42"
     fill-opacity="0.15"
     fill="#f25022"
     d="m 57.419,447.302 v -42.011 h 12.129 c 15.4882,0 23.2324,6.826 23.2324,20.478 0,6.484 -2.1485,11.699 -6.4453,15.645 -4.2969,3.925 -10.0591,5.888 -17.2851,5.888 z m 6.943,-36.094 v 30.206 h 5.567 c 4.902,0 8.711,-1.348 11.4256,-4.043 2.7344,-2.696 4.1016,-6.504 4.1016,-11.426 0,-9.824 -5.0879,-14.737 -15.2642,-14.737 z m 59.7621,22.94 h -20.4492 c 0.0781,2.773 0.9277,4.912 2.5488,6.416 1.6407,1.504 3.8868,2.256 6.7383,2.256 3.2031,0 6.1426,-0.957 8.8184,-2.871 v 5.478 c -2.7344,1.719 -6.3477,2.578 -10.8399,2.578 -4.414,0 -7.8808,-1.357 -10.4004,-4.072 -2.5,-2.734 -3.75,-6.572 -3.75,-11.514 0,-4.668 1.377,-8.466 4.1309,-11.396 2.7734,-2.949 6.2109,-4.424 10.3125,-4.424 4.1016,0 7.2754,1.318 9.5215,3.955 2.2461,2.637 3.3691,6.299 3.3691,10.987 z m -6.5625,-4.805 c -0.0195,-2.441 -0.5957,-4.336 -1.7285,-5.683 -1.1328,-1.368 -2.6953,-2.051 -4.6875,-2.051 -1.9531,0 -3.6133,0.713 -4.9805,2.139 -1.3476,1.425 -2.1777,3.291 -2.4902,5.595 z m 37.877,-12.041 -11.6016,30 h -7.3535 l -11.0449,-30 h 7.3828 l 6.6504,20.977 c 0.5078,1.543 0.8203,2.89 0.9375,4.043 h 0.0879 c 0.1758,-1.446 0.4492,-2.754 0.8203,-3.926 l 6.9726,-21.094 z m 28.56053,16.846 H 163.5499 c 0.0781,2.773 0.9277,4.912 2.5488,6.416 1.6407,1.504 3.8868,2.256 6.73832,2.256 3.20313,0 6.14258,-0.957 8.81836,-2.871 v 5.478 c -2.73437,1.719 -6.34765,2.578 -10.83984,2.578 -4.41404,0 -7.88084,-1.357 -10.40044,-4.072 -2.5,-2.734 -3.75,-6.572 -3.75,-11.514 0,-4.668 1.377,-8.466 4.1309,-11.396 2.7734,-2.949 6.2109,-4.424 10.31251,-4.424 4.10156,0 7.27539,1.318 9.52148,3.955 2.2461,2.637 3.36914,6.299 3.36914,10.987 z m -6.5625,-4.805 c -0.0195,-2.441 -0.5957,-4.336 -1.72851,-5.683 -1.13282,-1.368 -2.69532,-2.051 -4.6875,-2.051 -1.95312,0 -3.61332,0.713 -4.98052,2.139 -1.3476,1.425 -2.1777,3.291 -2.4902,5.595 z m 18.86327,17.959 h -6.82616 v -44.414 h 6.82616 z m 21.1777,0.703 c -4.6289,0 -8.33,-1.396 -11.1035,-4.189 -2.7539,-2.813 -4.1308,-6.533 -4.1308,-11.162 0,-5.039 1.4355,-8.975 4.3066,-11.807 2.8906,-2.832 6.7774,-4.248 11.6602,-4.248 4.6875,0 8.3398,1.377 10.957,4.131 2.6172,2.754 3.9258,6.572 3.9258,11.455 0,4.785 -1.416,8.623 -4.2481,11.514 -2.8125,2.871 -6.6015,4.306 -11.3672,4.306 z m 0.3223,-25.986 c -2.6562,0 -4.7558,0.928 -6.2988,2.783 -1.543,1.856 -2.3145,4.414 -2.3145,7.676 0,3.145 0.7813,5.625 2.3438,7.441 1.5625,1.797 3.6523,2.696 6.2695,2.696 2.6758,0 4.7266,-0.889 6.1524,-2.666 1.4453,-1.778 2.1679,-4.307 2.1679,-7.588 0,-3.301 -0.7226,-5.85 -2.1679,-7.647 -1.4258,-1.797 -3.4766,-2.695 -6.1524,-2.695 z m 28.1504,20.859 h -0.1172 v 18.223 h -6.7969 v -43.799 h 6.7969 v 5.274 h 0.1172 c 2.3242,-3.985 5.7227,-5.977 10.1953,-5.977 3.8086,0 6.7774,1.338 8.9063,4.014 2.1289,2.676 3.1933,6.269 3.1933,10.781 0,5 -1.2011,9.004 -3.6035,12.012 -2.4023,3.008 -5.6836,4.511 -9.8437,4.511 -3.8282,0 -6.7774,-1.679 -8.8477,-5.039 z m -0.1758,-11.836 v 3.721 c 0,2.188 0.6934,4.043 2.0801,5.567 1.4063,1.523 3.1836,2.285 5.332,2.285 2.5196,0 4.4922,-0.977 5.918,-2.93 1.4453,-1.973 2.168,-4.717 2.168,-8.232 0,-2.95 -0.6739,-5.254 -2.0215,-6.914 -1.3281,-1.68 -3.1348,-2.52 -5.4199,-2.52 -2.4219,0 -4.375,0.859 -5.8594,2.578 -1.4649,1.719 -2.1973,3.867 -2.1973,6.445 z" />
  <path
     id="path44"
     stroke-width="6"
     stroke-opacity="0.15"
     stroke="#f25022"
     d="m 27.251,355.852 134.248,-76.585 134.248,76.585 V 508.961 L 161.499,585.546 27.251,508.961 Z" />
  <path
     id="path46"
     fill-opacity="0.3"
     fill="#f25022"
     d="m 498.419,194.489 v -42.012 h 12.129 c 15.488,0 23.232,6.826 23.232,20.479 0,6.484 -2.148,11.699 -6.445,15.644 -4.297,3.926 -10.059,5.889 -17.285,5.889 z m 6.943,-36.094 V 188.6 h 5.567 c 4.902,0 8.711,-1.347 11.426,-4.043 2.734,-2.695 4.101,-6.504 4.101,-11.425 0,-9.825 -5.088,-14.737 -15.264,-14.737 z m 59.762,22.94 h -20.449 c 0.078,2.773 0.928,4.912 2.549,6.416 1.64,1.504 3.886,2.256 6.738,2.256 3.203,0 6.143,-0.957 8.818,-2.872 v 5.479 c -2.734,1.719 -6.347,2.578 -10.839,2.578 -4.415,0 -7.881,-1.357 -10.401,-4.072 -2.5,-2.735 -3.75,-6.572 -3.75,-11.514 0,-4.668 1.377,-8.467 4.131,-11.396 2.773,-2.95 6.211,-4.424 10.313,-4.424 4.101,0 7.275,1.318 9.521,3.955 2.246,2.637 3.369,6.299 3.369,10.986 z m -6.562,-4.805 c -0.02,-2.441 -0.596,-4.336 -1.729,-5.684 -1.133,-1.367 -2.695,-2.05 -4.687,-2.05 -1.954,0 -3.614,0.713 -4.981,2.138 -1.348,1.426 -2.178,3.291 -2.49,5.596 z m 37.877,-12.041 -11.602,30 h -7.353 l -11.045,-30 h 7.382 l 6.651,20.977 c 0.508,1.543 0.82,2.89 0.937,4.043 h 0.088 c 0.176,-1.446 0.449,-2.754 0.82,-3.926 l 6.973,-21.094 z m 28.56,16.846 H 604.55 c 0.078,2.773 0.928,4.912 2.549,6.416 1.64,1.504 3.886,2.256 6.738,2.256 3.203,0 6.143,-0.957 8.818,-2.872 v 5.479 c -2.734,1.719 -6.347,2.578 -10.839,2.578 -4.415,0 -7.881,-1.357 -10.401,-4.072 -2.5,-2.735 -3.75,-6.572 -3.75,-11.514 0,-4.668 1.377,-8.467 4.131,-11.396 2.773,-2.95 6.211,-4.424 10.313,-4.424 4.101,0 7.275,1.318 9.521,3.955 2.246,2.637 3.369,6.299 3.369,10.986 z m -6.562,-4.805 c -0.02,-2.441 -0.596,-4.336 -1.729,-5.684 -1.133,-1.367 -2.695,-2.05 -4.687,-2.05 -1.954,0 -3.614,0.713 -4.981,2.138 -1.348,1.426 -2.178,3.291 -2.49,5.596 z m 18.863,17.959 h -6.826 v -44.414 h 6.826 z m 21.178,0.703 c -4.629,0 -8.33,-1.396 -11.104,-4.189 -2.754,-2.813 -4.131,-6.534 -4.131,-11.162 0,-5.039 1.436,-8.975 4.307,-11.807 2.891,-2.832 6.777,-4.248 11.66,-4.248 4.688,0 8.34,1.377 10.957,4.131 2.617,2.754 3.926,6.572 3.926,11.455 0,4.785 -1.416,8.623 -4.248,11.513 -2.813,2.872 -6.602,4.307 -11.367,4.307 z m 0.322,-25.986 c -2.656,0 -4.756,0.928 -6.299,2.783 -1.543,1.855 -2.314,4.414 -2.314,7.676 0,3.144 0.781,5.625 2.343,7.441 1.563,1.797 3.653,2.696 6.27,2.696 2.676,0 4.726,-0.889 6.152,-2.667 1.446,-1.777 2.168,-4.306 2.168,-7.587 0,-3.301 -0.722,-5.85 -2.168,-7.647 -1.426,-1.797 -3.476,-2.695 -6.152,-2.695 z m 28.15,20.859 h -0.117 v 18.223 h -6.797 v -43.799 h 6.797 v 5.273 h 0.117 c 2.325,-3.984 5.723,-5.976 10.196,-5.976 3.808,0 6.777,1.338 8.906,4.014 2.129,2.675 3.193,6.269 3.193,10.781 0,5 -1.201,9.004 -3.603,12.012 -2.403,3.007 -5.684,4.511 -9.844,4.511 -3.828,0 -6.777,-1.679 -8.848,-5.039 z m -0.175,-11.836 v 3.721 c 0,2.187 0.693,4.043 2.08,5.566 1.406,1.524 3.183,2.286 5.332,2.286 2.519,0 4.492,-0.977 5.918,-2.93 1.445,-1.973 2.168,-4.717 2.168,-8.233 0,-2.949 -0.674,-5.254 -2.022,-6.914 -1.328,-1.679 -3.135,-2.519 -5.42,-2.519 -2.422,0 -4.375,0.859 -5.859,2.578 -1.465,1.719 -2.197,3.867 -2.197,6.445 z" />
  <path
     id="path48"
     stroke-width="6"
     stroke-opacity="0.3"
     stroke="#f25022"
     d="M 468.251,103.039 602.499,26.4538 736.747,103.039 V 256.148 L 602.499,332.733 468.251,256.148 Z" />
  <path
     id="path50"
     fill-opacity="0.15"
     fill="#f25022"
     d="m 1386.419,194.489 v -42.012 h 12.13 c 15.49,0 23.23,6.826 23.23,20.479 0,6.484 -2.15,11.699 -6.44,15.644 -4.3,3.926 -10.06,5.889 -17.29,5.889 z m 6.94,-36.094 V 188.6 h 5.57 c 4.9,0 8.71,-1.347 11.43,-4.043 2.73,-2.695 4.1,-6.504 4.1,-11.425 0,-9.825 -5.09,-14.737 -15.27,-14.737 z m 59.77,22.94 h -20.45 c 0.07,2.773 0.92,4.912 2.54,6.416 1.65,1.504 3.89,2.256 6.74,2.256 3.21,0 6.15,-0.957 8.82,-2.872 v 5.479 c -2.73,1.719 -6.35,2.578 -10.84,2.578 -4.41,0 -7.88,-1.357 -10.4,-4.072 -2.5,-2.735 -3.75,-6.572 -3.75,-11.514 0,-4.668 1.38,-8.467 4.13,-11.396 2.78,-2.95 6.21,-4.424 10.31,-4.424 4.11,0 7.28,1.318 9.53,3.955 2.24,2.637 3.37,6.299 3.37,10.986 z m -6.57,-4.805 c -0.02,-2.441 -0.59,-4.336 -1.73,-5.684 -1.13,-1.367 -2.69,-2.05 -4.68,-2.05 -1.96,0 -3.62,0.713 -4.98,2.138 -1.35,1.426 -2.18,3.291 -2.49,5.596 z m 37.88,-12.041 -11.6,30 h -7.36 l -11.04,-30 h 7.38 l 6.65,20.977 c 0.51,1.543 0.82,2.89 0.94,4.043 h 0.09 c 0.17,-1.446 0.45,-2.754 0.82,-3.926 l 6.97,-21.094 z m 28.56,16.846 h -20.45 c 0.08,2.773 0.93,4.912 2.55,6.416 1.64,1.504 3.89,2.256 6.74,2.256 3.2,0 6.14,-0.957 8.82,-2.872 v 5.479 c -2.74,1.719 -6.35,2.578 -10.84,2.578 -4.42,0 -7.88,-1.357 -10.4,-4.072 -2.5,-2.735 -3.75,-6.572 -3.75,-11.514 0,-4.668 1.37,-8.467 4.13,-11.396 2.77,-2.95 6.21,-4.424 10.31,-4.424 4.1,0 7.27,1.318 9.52,3.955 2.25,2.637 3.37,6.299 3.37,10.986 z m -6.56,-4.805 c -0.02,-2.441 -0.6,-4.336 -1.73,-5.684 -1.13,-1.367 -2.7,-2.05 -4.69,-2.05 -1.95,0 -3.61,0.713 -4.98,2.138 -1.35,1.426 -2.18,3.291 -2.49,5.596 z m 18.86,17.959 h -6.83 v -44.414 h 6.83 z m 21.18,0.703 c -4.63,0 -8.33,-1.396 -11.1,-4.189 -2.76,-2.813 -4.14,-6.534 -4.14,-11.162 0,-5.039 1.44,-8.975 4.31,-11.807 2.89,-2.832 6.78,-4.248 11.66,-4.248 4.69,0 8.34,1.377 10.96,4.131 2.62,2.754 3.92,6.572 3.92,11.455 0,4.785 -1.41,8.623 -4.24,11.513 -2.82,2.872 -6.61,4.307 -11.37,4.307 z m 0.32,-25.986 c -2.66,0 -4.75,0.928 -6.3,2.783 -1.54,1.855 -2.31,4.414 -2.31,7.676 0,3.144 0.78,5.625 2.34,7.441 1.56,1.797 3.65,2.696 6.27,2.696 2.68,0 4.73,-0.889 6.15,-2.667 1.45,-1.777 2.17,-4.306 2.17,-7.587 0,-3.301 -0.72,-5.85 -2.17,-7.647 -1.42,-1.797 -3.47,-2.695 -6.15,-2.695 z m 28.15,20.859 h -0.12 v 18.223 h -6.79 v -43.799 h 6.79 v 5.273 h 0.12 c 2.33,-3.984 5.72,-5.976 10.2,-5.976 3.81,0 6.77,1.338 8.9,4.014 2.13,2.675 3.2,6.269 3.2,10.781 0,5 -1.2,9.004 -3.61,12.012 -2.4,3.007 -5.68,4.511 -9.84,4.511 -3.83,0 -6.78,-1.679 -8.85,-5.039 z m -0.17,-11.836 v 3.721 c 0,2.187 0.69,4.043 2.08,5.566 1.4,1.524 3.18,2.286 5.33,2.286 2.52,0 4.49,-0.977 5.92,-2.93 1.44,-1.973 2.16,-4.717 2.16,-8.233 0,-2.949 -0.67,-5.254 -2.02,-6.914 -1.33,-1.679 -3.13,-2.519 -5.42,-2.519 -2.42,0 -4.37,0.859 -5.86,2.578 -1.46,1.719 -2.19,3.867 -2.19,6.445 z" />
  <path
     id="path52"
     stroke-width="6"
     stroke-opacity="0.15"
     stroke="#f25022"
     d="m 1356.249,103.039 134.25,-76.5852 134.25,76.5852 v 153.109 l -134.25,76.585 -134.25,-76.585 z" />
  <defs
     id="defs99">
    <filter
       color-interpolation-filters="sRGB"
       filterUnits="userSpaceOnUse"
       height="363.18701"
       width="324.495"
       y="252.813"
       x="407.23199"
       id="filter0_d">
      <feFlood
         id="feFlood54"
         result="BackgroundImageFix"
         flood-opacity="0" />
      <feColorMatrix
         id="feColorMatrix56"
         values="0 0 0 0 0 0 0 0 0 0 0 0 0 0 0 0 0 0 127 0"
         type="matrix"
         in="SourceAlpha" />
      <feOffset
         id="feOffset58"
         dy="2" />
      <feGaussianBlur
         id="feGaussianBlur60"
         stdDeviation="12.5" />
      <feColorMatrix
         id="feColorMatrix62"
         values="0 0 0 0 0 0 0 0 0 0 0 0 0 0 0 0 0 0 0.4 0"
         type="matrix" />
      <feBlend
         id="feBlend64"
         result="effect1_dropShadow"
         in2="BackgroundImageFix"
         mode="normal" />
      <feBlend
         id="feBlend66"
         result="shape"
         in2="effect1_dropShadow"
         in="SourceGraphic"
         mode="normal" />
    </filter>
    <filter
       color-interpolation-filters="sRGB"
       filterUnits="userSpaceOnUse"
       height="363.18701"
       width="324.495"
       y="0"
       x="554.39203"
       id="filter1_d">
      <feFlood
         id="feFlood69"
         result="BackgroundImageFix"
         flood-opacity="0" />
      <feColorMatrix
         id="feColorMatrix71"
         values="0 0 0 0 0 0 0 0 0 0 0 0 0 0 0 0 0 0 127 0"
         type="matrix"
         in="SourceAlpha" />
      <feOffset
         id="feOffset73"
         dy="2" />
      <feGaussianBlur
         id="feGaussianBlur75"
         stdDeviation="12.5" />
      <feColorMatrix
         id="feColorMatrix77"
         values="0 0 0 0 0 0 0 0 0 0 0 0 0 0 0 0 0 0 0.4 0"
         type="matrix" />
      <feBlend
         id="feBlend79"
         result="effect1_dropShadow"
         in2="BackgroundImageFix"
         mode="normal" />
      <feBlend
         id="feBlend81"
         result="shape"
         in2="effect1_dropShadow"
         in="SourceGraphic"
         mode="normal" />
    </filter>
    <filter
       color-interpolation-filters="sRGB"
       filterUnits="userSpaceOnUse"
       height="363.18701"
       width="324.495"
       y="253"
       x="704.23199"
       id="filter2_d">
      <feFlood
         id="feFlood84"
         result="BackgroundImageFix"
         flood-opacity="0" />
      <feColorMatrix
         id="feColorMatrix86"
         values="0 0 0 0 0 0 0 0 0 0 0 0 0 0 0 0 0 0 127 0"
         type="matrix"
         in="SourceAlpha" />
      <feOffset
         id="feOffset88"
         dy="2" />
      <feGaussianBlur
         id="feGaussianBlur90"
         stdDeviation="12.5" />
      <feColorMatrix
         id="feColorMatrix92"
         values="0 0 0 0 0 0 0 0 0 0 0 0 0 0 0 0 0 0 0.4 0"
         type="matrix" />
      <feBlend
         id="feBlend94"
         result="effect1_dropShadow"
         in2="BackgroundImageFix"
         mode="normal" />
      <feBlend
         id="feBlend96"
         result="shape"
         in2="effect1_dropShadow"
         in="SourceGraphic"
         mode="normal" />
    </filter>
  </defs>
</svg>
