<svg viewBox="0 0 1440 617" fill="none" xmlns="http://www.w3.org/2000/svg">
<g filter="url(#filter0_d)">
<path d="M435.232 355.852L569.48 279.267L703.728 355.852V508.961L569.48 585.546L435.232 508.961V355.852Z" fill="white" stroke="#00A4EF" stroke-width="6"/>
<path d="M489.88 447.302H482.703V405.291H489.88V447.302ZM526.208 447.302H519.412V430.398C519.412 424.792 517.429 421.99 513.464 421.99C511.394 421.99 509.685 422.771 508.337 424.333C506.99 425.876 506.316 427.83 506.316 430.193V447.302H499.49V417.302H506.316V422.283H506.433C508.679 418.494 511.921 416.599 516.16 416.599C519.421 416.599 521.912 417.664 523.63 419.792C525.349 421.902 526.208 424.958 526.208 428.962V447.302ZM532.654 446.365V440.066C535.193 442 537.996 442.966 541.062 442.966C545.163 442.966 547.214 441.755 547.214 439.333C547.214 438.65 547.038 438.074 546.687 437.605C546.335 437.117 545.857 436.687 545.251 436.316C544.665 435.945 543.962 435.613 543.142 435.32C542.341 435.027 541.443 434.695 540.447 434.324C539.216 433.835 538.103 433.318 537.107 432.771C536.13 432.224 535.31 431.609 534.646 430.925C534.001 430.222 533.513 429.431 533.181 428.552C532.849 427.673 532.683 426.648 532.683 425.476C532.683 424.031 533.025 422.761 533.708 421.667C534.392 420.554 535.31 419.626 536.462 418.884C537.615 418.123 538.923 417.556 540.388 417.185C541.853 416.794 543.367 416.599 544.929 416.599C547.703 416.599 550.183 417.019 552.371 417.859V423.806C550.261 422.361 547.839 421.638 545.105 421.638C544.246 421.638 543.464 421.726 542.761 421.902C542.078 422.078 541.492 422.322 541.003 422.634C540.515 422.947 540.134 423.328 539.861 423.777C539.587 424.207 539.451 424.685 539.451 425.212C539.451 425.857 539.587 426.404 539.861 426.853C540.134 427.302 540.535 427.703 541.062 428.054C541.609 428.386 542.253 428.699 542.996 428.992C543.757 429.265 544.626 429.568 545.603 429.9C546.892 430.427 548.044 430.964 549.06 431.511C550.095 432.058 550.974 432.683 551.697 433.386C552.419 434.07 552.976 434.871 553.367 435.789C553.757 436.687 553.953 437.761 553.953 439.011C553.953 440.535 553.601 441.863 552.898 442.996C552.195 444.128 551.257 445.066 550.085 445.808C548.913 446.55 547.556 447.097 546.013 447.449C544.49 447.82 542.878 448.005 541.179 448.005C537.898 448.005 535.056 447.458 532.654 446.365ZM567.341 442.878H567.224V461.101H560.427V417.302H567.224V422.576H567.341C569.665 418.591 573.064 416.599 577.537 416.599C581.345 416.599 584.314 417.937 586.443 420.613C588.572 423.289 589.636 426.882 589.636 431.394C589.636 436.394 588.435 440.398 586.033 443.406C583.63 446.414 580.349 447.917 576.189 447.917C572.361 447.917 569.412 446.238 567.341 442.878ZM567.165 431.042V434.763C567.165 436.951 567.859 438.806 569.246 440.33C570.652 441.853 572.429 442.615 574.578 442.615C577.097 442.615 579.07 441.638 580.496 439.685C581.941 437.712 582.663 434.968 582.663 431.453C582.663 428.503 581.99 426.199 580.642 424.539C579.314 422.859 577.507 422.019 575.222 422.019C572.8 422.019 570.847 422.878 569.363 424.597C567.898 426.316 567.165 428.464 567.165 431.042ZM600.007 411.003C598.894 411.003 597.937 410.642 597.136 409.919C596.355 409.197 595.964 408.279 595.964 407.166C595.964 406.052 596.355 405.125 597.136 404.382C597.937 403.64 598.894 403.269 600.007 403.269C601.16 403.269 602.136 403.64 602.937 404.382C603.738 405.125 604.138 406.052 604.138 407.166C604.138 408.22 603.738 409.128 602.937 409.89C602.136 410.632 601.16 411.003 600.007 411.003ZM603.376 447.302H596.579V417.302H603.376V447.302ZM629.685 423.777C628.865 423.132 627.683 422.81 626.14 422.81C624.128 422.81 622.449 423.718 621.101 425.535C619.753 427.351 619.079 429.822 619.079 432.947V447.302H612.283V417.302H619.079V423.484H619.197C619.861 421.375 620.876 419.734 622.244 418.562C623.63 417.371 625.173 416.775 626.872 416.775C628.103 416.775 629.04 416.96 629.685 417.332V423.777ZM659.363 434.148H638.913C638.992 436.921 639.841 439.06 641.462 440.564C643.103 442.068 645.349 442.82 648.201 442.82C651.404 442.82 654.343 441.863 657.019 439.949V445.427C654.285 447.146 650.671 448.005 646.179 448.005C641.765 448.005 638.298 446.648 635.779 443.933C633.279 441.199 632.029 437.361 632.029 432.419C632.029 427.751 633.406 423.953 636.16 421.023C638.933 418.074 642.371 416.599 646.472 416.599C650.574 416.599 653.747 417.917 655.994 420.554C658.24 423.191 659.363 426.853 659.363 431.541V434.148ZM652.8 429.343C652.781 426.902 652.204 425.007 651.072 423.66C649.939 422.292 648.376 421.609 646.384 421.609C644.431 421.609 642.771 422.322 641.404 423.748C640.056 425.173 639.226 427.039 638.913 429.343H652.8Z" fill="#00A4EF"/>
</g>
<path d="M1378.88 447.302H1371.7V405.291H1378.88V447.302ZM1415.21 447.302H1408.41V430.398C1408.41 424.792 1406.43 421.99 1402.46 421.99C1400.39 421.99 1398.68 422.771 1397.34 424.333C1395.99 425.876 1395.32 427.83 1395.32 430.193V447.302H1388.49V417.302H1395.32V422.283H1395.43C1397.68 418.494 1400.92 416.599 1405.16 416.599C1408.42 416.599 1410.91 417.664 1412.63 419.792C1414.35 421.902 1415.21 424.958 1415.21 428.962V447.302ZM1421.65 446.365V440.066C1424.19 442 1427 442.966 1430.06 442.966C1434.16 442.966 1436.21 441.755 1436.21 439.333C1436.21 438.65 1436.04 438.074 1435.69 437.605C1435.34 437.117 1434.86 436.687 1434.25 436.316C1433.67 435.945 1432.96 435.613 1432.14 435.32C1431.34 435.027 1430.44 434.695 1429.45 434.324C1428.22 433.835 1427.1 433.318 1426.11 432.771C1425.13 432.224 1424.31 431.609 1423.65 430.925C1423 430.222 1422.51 429.431 1422.18 428.552C1421.85 427.673 1421.68 426.648 1421.68 425.476C1421.68 424.031 1422.02 422.761 1422.71 421.667C1423.39 420.554 1424.31 419.626 1425.46 418.884C1426.61 418.123 1427.92 417.556 1429.39 417.185C1430.85 416.794 1432.37 416.599 1433.93 416.599C1436.7 416.599 1439.18 417.019 1441.37 417.859V423.806C1439.26 422.361 1436.84 421.638 1434.1 421.638C1433.25 421.638 1432.46 421.726 1431.76 421.902C1431.08 422.078 1430.49 422.322 1430 422.634C1429.52 422.947 1429.13 423.328 1428.86 423.777C1428.59 424.207 1428.45 424.685 1428.45 425.212C1428.45 425.857 1428.59 426.404 1428.86 426.853C1429.13 427.302 1429.53 427.703 1430.06 428.054C1430.61 428.386 1431.25 428.699 1432 428.992C1432.76 429.265 1433.63 429.568 1434.6 429.9C1435.89 430.427 1437.04 430.964 1438.06 431.511C1439.1 432.058 1439.97 432.683 1440.7 433.386C1441.42 434.07 1441.98 434.871 1442.37 435.789C1442.76 436.687 1442.95 437.761 1442.95 439.011C1442.95 440.535 1442.6 441.863 1441.9 442.996C1441.19 444.128 1440.26 445.066 1439.09 445.808C1437.91 446.55 1436.56 447.097 1435.01 447.449C1433.49 447.82 1431.88 448.005 1430.18 448.005C1426.9 448.005 1424.06 447.458 1421.65 446.365ZM1456.34 442.878H1456.22V461.101H1449.43V417.302H1456.22V422.576H1456.34C1458.67 418.591 1462.06 416.599 1466.54 416.599C1470.35 416.599 1473.31 417.937 1475.44 420.613C1477.57 423.289 1478.64 426.882 1478.64 431.394C1478.64 436.394 1477.43 440.398 1475.03 443.406C1472.63 446.414 1469.35 447.917 1465.19 447.917C1461.36 447.917 1458.41 446.238 1456.34 442.878ZM1456.17 431.042V434.763C1456.17 436.951 1456.86 438.806 1458.25 440.33C1459.65 441.853 1461.43 442.615 1463.58 442.615C1466.1 442.615 1468.07 441.638 1469.5 439.685C1470.94 437.712 1471.66 434.968 1471.66 431.453C1471.66 428.503 1470.99 426.199 1469.64 424.539C1468.31 422.859 1466.51 422.019 1464.22 422.019C1461.8 422.019 1459.85 422.878 1458.36 424.597C1456.9 426.316 1456.17 428.464 1456.17 431.042ZM1489.01 411.003C1487.89 411.003 1486.94 410.642 1486.14 409.919C1485.35 409.197 1484.96 408.279 1484.96 407.166C1484.96 406.052 1485.35 405.125 1486.14 404.382C1486.94 403.64 1487.89 403.269 1489.01 403.269C1490.16 403.269 1491.14 403.64 1491.94 404.382C1492.74 405.125 1493.14 406.052 1493.14 407.166C1493.14 408.22 1492.74 409.128 1491.94 409.89C1491.14 410.632 1490.16 411.003 1489.01 411.003ZM1492.38 447.302H1485.58V417.302H1492.38V447.302ZM1518.68 423.777C1517.86 423.132 1516.68 422.81 1515.14 422.81C1513.13 422.81 1511.45 423.718 1510.1 425.535C1508.75 427.351 1508.08 429.822 1508.08 432.947V447.302H1501.28V417.302H1508.08V423.484H1508.2C1508.86 421.375 1509.88 419.734 1511.24 418.562C1512.63 417.371 1514.17 416.775 1515.87 416.775C1517.1 416.775 1518.04 416.96 1518.68 417.332V423.777ZM1548.36 434.148H1527.91C1527.99 436.921 1528.84 439.06 1530.46 440.564C1532.1 442.068 1534.35 442.82 1537.2 442.82C1540.4 442.82 1543.34 441.863 1546.02 439.949V445.427C1543.28 447.146 1539.67 448.005 1535.18 448.005C1530.77 448.005 1527.3 446.648 1524.78 443.933C1522.28 441.199 1521.03 437.361 1521.03 432.419C1521.03 427.751 1522.41 423.953 1525.16 421.023C1527.93 418.074 1531.37 416.599 1535.47 416.599C1539.57 416.599 1542.75 417.917 1544.99 420.554C1547.24 423.191 1548.36 426.853 1548.36 431.541V434.148ZM1541.8 429.343C1541.78 426.902 1541.2 425.007 1540.07 423.66C1538.94 422.292 1537.38 421.609 1535.38 421.609C1533.43 421.609 1531.77 422.322 1530.4 423.748C1529.06 425.173 1528.23 427.039 1527.91 429.343H1541.8Z" fill="#00A4EF" fill-opacity="0.15"/>
<path d="M1324.23 355.852L1458.48 279.267L1592.73 355.852V508.961L1458.48 585.546L1324.23 508.961V355.852Z" stroke="#00A4EF" stroke-opacity="0.15" stroke-width="6"/>
<path d="M934.88 194.489H927.703V152.477H934.88V194.489ZM971.208 194.489H964.412V177.585C964.412 171.979 962.429 169.177 958.464 169.177C956.394 169.177 954.685 169.958 953.337 171.52C951.99 173.063 951.316 175.016 951.316 177.38V194.489H944.49V164.489H951.316V169.469H951.433C953.679 165.68 956.921 163.786 961.16 163.786C964.421 163.786 966.912 164.85 968.63 166.979C970.349 169.089 971.208 172.145 971.208 176.149V194.489ZM977.654 193.552V187.253C980.193 189.186 982.996 190.153 986.062 190.153C990.163 190.153 992.214 188.942 992.214 186.52C992.214 185.837 992.038 185.26 991.687 184.792C991.335 184.303 990.857 183.874 990.251 183.503C989.665 183.132 988.962 182.8 988.142 182.507C987.341 182.214 986.443 181.882 985.447 181.51C984.216 181.022 983.103 180.505 982.107 179.958C981.13 179.411 980.31 178.796 979.646 178.112C979.001 177.409 978.513 176.618 978.181 175.739C977.849 174.86 977.683 173.835 977.683 172.663C977.683 171.218 978.025 169.948 978.708 168.854C979.392 167.741 980.31 166.813 981.462 166.071C982.615 165.309 983.923 164.743 985.388 164.372C986.853 163.981 988.367 163.786 989.929 163.786C992.703 163.786 995.183 164.206 997.371 165.046V170.993C995.261 169.548 992.839 168.825 990.105 168.825C989.246 168.825 988.464 168.913 987.761 169.089C987.078 169.264 986.492 169.509 986.003 169.821C985.515 170.134 985.134 170.514 984.861 170.964C984.587 171.393 984.451 171.872 984.451 172.399C984.451 173.044 984.587 173.591 984.861 174.04C985.134 174.489 985.535 174.889 986.062 175.241C986.609 175.573 987.253 175.885 987.996 176.178C988.757 176.452 989.626 176.755 990.603 177.087C991.892 177.614 993.044 178.151 994.06 178.698C995.095 179.245 995.974 179.87 996.697 180.573C997.419 181.257 997.976 182.057 998.367 182.975C998.757 183.874 998.953 184.948 998.953 186.198C998.953 187.721 998.601 189.05 997.898 190.182C997.195 191.315 996.257 192.253 995.085 192.995C993.913 193.737 992.556 194.284 991.013 194.635C989.49 195.007 987.878 195.192 986.179 195.192C982.898 195.192 980.056 194.645 977.654 193.552ZM1012.34 190.065H1012.22V208.288H1005.43V164.489H1012.22V169.762H1012.34C1014.67 165.778 1018.06 163.786 1022.54 163.786C1026.35 163.786 1029.31 165.124 1031.44 167.8C1033.57 170.475 1034.64 174.069 1034.64 178.581C1034.64 183.581 1033.43 187.585 1031.03 190.593C1028.63 193.6 1025.35 195.104 1021.19 195.104C1017.36 195.104 1014.41 193.425 1012.34 190.065ZM1012.17 178.229V181.95C1012.17 184.137 1012.86 185.993 1014.25 187.516C1015.65 189.04 1017.43 189.802 1019.58 189.802C1022.1 189.802 1024.07 188.825 1025.5 186.872C1026.94 184.899 1027.66 182.155 1027.66 178.639C1027.66 175.69 1026.99 173.385 1025.64 171.725C1024.31 170.046 1022.51 169.206 1020.22 169.206C1017.8 169.206 1015.85 170.065 1014.36 171.784C1012.9 173.503 1012.17 175.651 1012.17 178.229ZM1045.01 158.19C1043.89 158.19 1042.94 157.829 1042.14 157.106C1041.35 156.384 1040.96 155.466 1040.96 154.352C1040.96 153.239 1041.35 152.311 1042.14 151.569C1042.94 150.827 1043.89 150.456 1045.01 150.456C1046.16 150.456 1047.14 150.827 1047.94 151.569C1048.74 152.311 1049.14 153.239 1049.14 154.352C1049.14 155.407 1048.74 156.315 1047.94 157.077C1047.14 157.819 1046.16 158.19 1045.01 158.19ZM1048.38 194.489H1041.58V164.489H1048.38V194.489ZM1074.68 170.964C1073.86 170.319 1072.68 169.997 1071.14 169.997C1069.13 169.997 1067.45 170.905 1066.1 172.721C1064.75 174.538 1064.08 177.009 1064.08 180.134V194.489H1057.28V164.489H1064.08V170.671H1064.2C1064.86 168.561 1065.88 166.921 1067.24 165.749C1068.63 164.557 1070.17 163.962 1071.87 163.962C1073.1 163.962 1074.04 164.147 1074.68 164.518V170.964ZM1104.36 181.335H1083.91C1083.99 184.108 1084.84 186.247 1086.46 187.751C1088.1 189.255 1090.35 190.007 1093.2 190.007C1096.4 190.007 1099.34 189.05 1102.02 187.135V192.614C1099.28 194.333 1095.67 195.192 1091.18 195.192C1086.77 195.192 1083.3 193.835 1080.78 191.12C1078.28 188.385 1077.03 184.548 1077.03 179.606C1077.03 174.938 1078.41 171.139 1081.16 168.21C1083.93 165.26 1087.37 163.786 1091.47 163.786C1095.57 163.786 1098.75 165.104 1100.99 167.741C1103.24 170.378 1104.36 174.04 1104.36 178.727V181.335ZM1097.8 176.53C1097.78 174.089 1097.2 172.194 1096.07 170.846C1094.94 169.479 1093.38 168.796 1091.38 168.796C1089.43 168.796 1087.77 169.509 1086.4 170.934C1085.06 172.36 1084.23 174.225 1083.91 176.53H1097.8Z" fill="#00A4EF" fill-opacity="0.3"/>
<path d="M880.232 103.039L1014.48 26.4538L1148.73 103.039V256.148L1014.48 332.733L880.232 256.148V103.039Z" stroke="#00A4EF" stroke-opacity="0.3" stroke-width="6"/>
<g opacity="0.3">
<path d="M49.8805 194.489H42.7028V152.477H49.8805V194.489ZM86.2086 194.489H79.4118V177.585C79.4118 171.979 77.4294 169.177 73.4645 169.177C71.3942 169.177 69.6852 169.958 68.3376 171.52C66.9899 173.063 66.3161 175.016 66.3161 177.38V194.489H59.4899V164.489H66.3161V169.469H66.4333C68.6794 165.68 71.9215 163.786 76.1598 163.786C79.4215 163.786 81.9118 164.85 83.6305 166.979C85.3493 169.089 86.2086 172.145 86.2086 176.149V194.489ZM92.654 193.552V187.253C95.193 189.186 97.9958 190.153 101.062 190.153C105.164 190.153 107.215 188.942 107.215 186.52C107.215 185.837 107.039 185.26 106.687 184.792C106.336 184.303 105.857 183.874 105.252 183.503C104.666 183.132 103.963 182.8 103.142 182.507C102.341 182.214 101.443 181.882 100.447 181.51C99.2165 181.022 98.1032 180.505 97.1071 179.958C96.1305 179.411 95.3102 178.796 94.6461 178.112C94.0016 177.409 93.5133 176.618 93.1813 175.739C92.8493 174.86 92.6833 173.835 92.6833 172.663C92.6833 171.218 93.0251 169.948 93.7086 168.854C94.3922 167.741 95.3102 166.813 96.4626 166.071C97.6149 165.309 98.9235 164.743 100.388 164.372C101.853 163.981 103.367 163.786 104.929 163.786C107.703 163.786 110.183 164.206 112.371 165.046V170.993C110.261 169.548 107.84 168.825 105.105 168.825C104.246 168.825 103.465 168.913 102.761 169.089C102.078 169.264 101.492 169.509 101.004 169.821C100.515 170.134 100.134 170.514 99.861 170.964C99.5876 171.393 99.4508 171.872 99.4508 172.399C99.4508 173.044 99.5876 173.591 99.861 174.04C100.134 174.489 100.535 174.889 101.062 175.241C101.609 175.573 102.254 175.885 102.996 176.178C103.757 176.452 104.627 176.755 105.603 177.087C106.892 177.614 108.045 178.151 109.06 178.698C110.095 179.245 110.974 179.87 111.697 180.573C112.42 181.257 112.976 182.057 113.367 182.975C113.757 183.874 113.953 184.948 113.953 186.198C113.953 187.721 113.601 189.05 112.898 190.182C112.195 191.315 111.257 192.253 110.086 192.995C108.914 193.737 107.556 194.284 106.013 194.635C104.49 195.007 102.879 195.192 101.179 195.192C97.8981 195.192 95.0563 194.645 92.654 193.552ZM127.341 190.065H127.224V208.288H120.427V164.489H127.224V169.762H127.341C129.666 165.778 133.064 163.786 137.537 163.786C141.345 163.786 144.314 165.124 146.443 167.8C148.572 170.475 149.636 174.069 149.636 178.581C149.636 183.581 148.435 187.585 146.033 190.593C143.631 193.6 140.349 195.104 136.189 195.104C132.361 195.104 129.412 193.425 127.341 190.065ZM127.166 178.229V181.95C127.166 184.137 127.859 185.993 129.246 187.516C130.652 189.04 132.429 189.802 134.578 189.802C137.097 189.802 139.07 188.825 140.496 186.872C141.941 184.899 142.664 182.155 142.664 178.639C142.664 175.69 141.99 173.385 140.642 171.725C139.314 170.046 137.507 169.206 135.222 169.206C132.8 169.206 130.847 170.065 129.363 171.784C127.898 173.503 127.166 175.651 127.166 178.229ZM160.007 158.19C158.894 158.19 157.937 157.829 157.136 157.106C156.355 156.384 155.965 155.466 155.965 154.352C155.965 153.239 156.355 152.311 157.136 151.569C157.937 150.827 158.894 150.456 160.007 150.456C161.16 150.456 162.136 150.827 162.937 151.569C163.738 152.311 164.138 153.239 164.138 154.352C164.138 155.407 163.738 156.315 162.937 157.077C162.136 157.819 161.16 158.19 160.007 158.19ZM163.377 194.489H156.58V164.489H163.377V194.489ZM189.685 170.964C188.865 170.319 187.683 169.997 186.14 169.997C184.129 169.997 182.449 170.905 181.101 172.721C179.754 174.538 179.08 177.009 179.08 180.134V194.489H172.283V164.489H179.08V170.671H179.197C179.861 168.561 180.877 166.921 182.244 165.749C183.631 164.557 185.173 163.962 186.873 163.962C188.103 163.962 189.041 164.147 189.685 164.518V170.964ZM219.363 181.335H198.914C198.992 184.108 199.841 186.247 201.463 187.751C203.103 189.255 205.349 190.007 208.201 190.007C211.404 190.007 214.343 189.05 217.019 187.135V192.614C214.285 194.333 210.672 195.192 206.179 195.192C201.765 195.192 198.298 193.835 195.779 191.12C193.279 188.385 192.029 184.548 192.029 179.606C192.029 174.938 193.406 171.139 196.16 168.21C198.933 165.26 202.371 163.786 206.472 163.786C210.574 163.786 213.748 165.104 215.994 167.741C218.24 170.378 219.363 174.04 219.363 178.727V181.335ZM212.8 176.53C212.781 174.089 212.205 172.194 211.072 170.846C209.939 169.479 208.377 168.796 206.384 168.796C204.431 168.796 202.771 169.509 201.404 170.934C200.056 172.36 199.226 174.225 198.914 176.53H212.8Z" fill="#00A4EF" fill-opacity="0.3"/>
<path d="M-4.7677 103.039L129.48 26.4538L263.728 103.039V256.148L129.48 332.733L-4.7677 256.148V103.039Z" stroke="#00A4EF" stroke-opacity="0.3" stroke-width="6"/>
</g>
<g filter="url(#filter1_d)">
<path d="M582.392 103.039L716.64 26.4538L850.888 103.039V256.148L716.64 332.733L582.392 256.148V103.039Z" fill="white" stroke="#7FBA00" stroke-width="6"/>
<path d="M670.175 194.489H646.913V152.477H653.886V188.6H670.175V194.489ZM700.908 181.335H680.458C680.537 184.108 681.386 186.247 683.007 187.751C684.648 189.255 686.894 190.006 689.746 190.006C692.949 190.006 695.888 189.049 698.564 187.135V192.614C695.829 194.333 692.216 195.192 687.724 195.192C683.31 195.192 679.843 193.835 677.324 191.12C674.824 188.385 673.574 184.547 673.574 179.606C673.574 174.938 674.951 171.139 677.704 168.21C680.478 165.26 683.915 163.786 688.017 163.786C692.119 163.786 695.292 165.104 697.538 167.741C699.785 170.378 700.908 174.04 700.908 178.727V181.335ZM694.345 176.53C694.326 174.089 693.749 172.194 692.617 170.846C691.484 169.479 689.921 168.796 687.929 168.796C685.976 168.796 684.316 169.508 682.949 170.934C681.601 172.36 680.771 174.225 680.458 176.53H694.345ZM730.41 194.489H723.818V189.801H723.701C721.63 193.395 718.593 195.192 714.589 195.192C711.64 195.192 709.326 194.391 707.646 192.79C705.986 191.188 705.156 189.069 705.156 186.432C705.156 180.768 708.417 177.467 714.941 176.53L723.847 175.27C723.847 170.993 721.816 168.854 717.753 168.854C714.179 168.854 710.956 170.085 708.085 172.546V166.598C711.249 164.723 714.902 163.786 719.042 163.786C726.621 163.786 730.41 167.516 730.41 174.977V194.489ZM723.847 179.753L717.548 180.631C715.595 180.885 714.121 181.364 713.124 182.067C712.148 182.751 711.66 183.962 711.66 185.7C711.66 186.969 712.109 188.014 713.007 188.835C713.925 189.635 715.146 190.036 716.669 190.036C718.74 190.036 720.449 189.313 721.796 187.868C723.163 186.403 723.847 184.567 723.847 182.36V179.753ZM756.132 170.964C755.312 170.319 754.13 169.997 752.587 169.997C750.576 169.997 748.896 170.905 747.548 172.721C746.201 174.538 745.527 177.008 745.527 180.133V194.489H738.73V164.489H745.527V170.671H745.644C746.308 168.561 747.324 166.921 748.691 165.749C750.078 164.557 751.621 163.962 753.32 163.962C754.55 163.962 755.488 164.147 756.132 164.518V170.964ZM787.656 194.489H780.859V177.585C780.859 171.979 778.876 169.176 774.912 169.176C772.841 169.176 771.132 169.958 769.785 171.52C768.437 173.063 767.763 175.016 767.763 177.38V194.489H760.937V164.489H767.763V169.469H767.88C770.126 165.68 773.369 163.786 777.607 163.786C780.869 163.786 783.359 164.85 785.078 166.979C786.796 169.089 787.656 172.145 787.656 176.149V194.489Z" fill="#7FBA00"/>
</g>
<path d="M1115.02 447.489H1091.75V405.477H1098.73V441.6H1115.02V447.489ZM1145.75 434.335H1125.3C1125.38 437.108 1126.23 439.247 1127.85 440.751C1129.49 442.255 1131.73 443.006 1134.59 443.006C1137.79 443.006 1140.73 442.049 1143.4 440.135V445.614C1140.67 447.333 1137.06 448.192 1132.56 448.192C1128.15 448.192 1124.68 446.835 1122.16 444.12C1119.66 441.385 1118.41 437.547 1118.41 432.606C1118.41 427.938 1119.79 424.139 1122.54 421.21C1125.32 418.26 1128.76 416.786 1132.86 416.786C1136.96 416.786 1140.13 418.104 1142.38 420.741C1144.62 423.378 1145.75 427.04 1145.75 431.727V434.335ZM1139.19 429.53C1139.17 427.089 1138.59 425.194 1137.46 423.846C1136.32 422.479 1134.76 421.796 1132.77 421.796C1130.82 421.796 1129.16 422.508 1127.79 423.934C1126.44 425.36 1125.61 427.225 1125.3 429.53H1139.19ZM1175.25 447.489H1168.66V442.801H1168.54C1166.47 446.395 1163.43 448.192 1159.43 448.192C1156.48 448.192 1154.17 447.391 1152.49 445.79C1150.83 444.188 1150 442.069 1150 439.432C1150 433.768 1153.26 430.467 1159.78 429.53L1168.69 428.27C1168.69 423.993 1166.66 421.854 1162.59 421.854C1159.02 421.854 1155.8 423.085 1152.93 425.546V419.598C1156.09 417.723 1159.74 416.786 1163.88 416.786C1171.46 416.786 1175.25 420.516 1175.25 427.977V447.489ZM1168.69 432.753L1162.39 433.631C1160.44 433.885 1158.96 434.364 1157.96 435.067C1156.99 435.751 1156.5 436.962 1156.5 438.7C1156.5 439.969 1156.95 441.014 1157.85 441.835C1158.77 442.635 1159.99 443.036 1161.51 443.036C1163.58 443.036 1165.29 442.313 1166.64 440.868C1168 439.403 1168.69 437.567 1168.69 435.36V432.753ZM1200.97 423.964C1200.15 423.319 1198.97 422.997 1197.43 422.997C1195.42 422.997 1193.74 423.905 1192.39 425.721C1191.04 427.538 1190.37 430.008 1190.37 433.133V447.489H1183.57V417.489H1190.37V423.671H1190.48C1191.15 421.561 1192.16 419.921 1193.53 418.749C1194.92 417.557 1196.46 416.962 1198.16 416.962C1199.39 416.962 1200.33 417.147 1200.97 417.518V423.964ZM1232.5 447.489H1225.7V430.585C1225.7 424.979 1223.72 422.176 1219.75 422.176C1217.68 422.176 1215.97 422.958 1214.62 424.52C1213.28 426.063 1212.6 428.016 1212.6 430.38V447.489H1205.78V417.489H1212.6V422.469H1212.72C1214.97 418.68 1218.21 416.786 1222.45 416.786C1225.71 416.786 1228.2 417.85 1229.92 419.979C1231.64 422.089 1232.5 425.145 1232.5 429.149V447.489Z" fill="#7FBA00" fill-opacity="0.3"/>
<path d="M1027.23 356.039L1161.48 279.454L1295.73 356.039V509.148L1161.48 585.733L1027.23 509.148V356.039Z" stroke="#7FBA00" stroke-opacity="0.3" stroke-width="6"/>
<path d="M229.015 447.489H205.754V405.477H212.726V441.6H229.015V447.489ZM259.748 434.335H239.298C239.377 437.108 240.226 439.247 241.847 440.751C243.488 442.255 245.734 443.006 248.586 443.006C251.789 443.006 254.728 442.049 257.404 440.135V445.614C254.67 447.333 251.056 448.192 246.564 448.192C242.15 448.192 238.683 446.835 236.164 444.12C233.664 441.385 232.414 437.547 232.414 432.606C232.414 427.938 233.791 424.139 236.545 421.21C239.318 418.26 242.756 416.786 246.857 416.786C250.959 416.786 254.132 418.104 256.379 420.741C258.625 423.378 259.748 427.04 259.748 431.727V434.335ZM253.185 429.53C253.166 427.089 252.59 425.194 251.457 423.846C250.324 422.479 248.761 421.796 246.769 421.796C244.816 421.796 243.156 422.508 241.789 423.934C240.441 425.36 239.611 427.225 239.298 429.53H253.185ZM289.25 447.489H282.658V442.801H282.541C280.47 446.395 277.433 448.192 273.429 448.192C270.48 448.192 268.166 447.391 266.486 445.79C264.826 444.188 263.996 442.069 263.996 439.432C263.996 433.768 267.257 430.467 273.781 429.53L282.687 428.27C282.687 423.993 280.656 421.854 276.593 421.854C273.019 421.854 269.797 423.085 266.925 425.546V419.598C270.09 417.723 273.742 416.786 277.882 416.786C285.461 416.786 289.25 420.516 289.25 427.977V447.489ZM282.687 432.753L276.388 433.631C274.435 433.885 272.961 434.364 271.965 435.067C270.988 435.751 270.5 436.962 270.5 438.7C270.5 439.969 270.949 441.014 271.847 441.835C272.765 442.635 273.986 443.036 275.509 443.036C277.58 443.036 279.289 442.313 280.636 440.868C282.004 439.403 282.687 437.567 282.687 435.36V432.753ZM314.972 423.964C314.152 423.319 312.97 422.997 311.427 422.997C309.416 422.997 307.736 423.905 306.388 425.721C305.041 427.538 304.367 430.008 304.367 433.133V447.489H297.57V417.489H304.367V423.671H304.484C305.148 421.561 306.164 419.921 307.531 418.749C308.918 417.557 310.461 416.962 312.16 416.962C313.39 416.962 314.328 417.147 314.972 417.518V423.964ZM346.496 447.489H339.699V430.585C339.699 424.979 337.716 422.176 333.752 422.176C331.681 422.176 329.972 422.958 328.625 424.52C327.277 426.063 326.603 428.016 326.603 430.38V447.489H319.777V417.489H326.603V422.469H326.72C328.966 418.68 332.209 416.786 336.447 416.786C339.709 416.786 342.199 417.85 343.918 419.979C345.636 422.089 346.496 425.145 346.496 429.149V447.489Z" fill="#7FBA00" fill-opacity="0.3"/>
<path d="M141.232 356.039L275.48 279.454L409.728 356.039V509.148L275.48 585.733L141.232 509.148V356.039Z" stroke="#7FBA00" stroke-opacity="0.3" stroke-width="6"/>
<g filter="url(#filter2_d)">
<path d="M732.232 356.039L866.48 279.454L1000.73 356.039V509.148L866.48 585.733L732.232 509.148V356.039Z" fill="white" stroke="#F25022" stroke-width="6"/>
<path d="M762.4 447.489V405.477H774.529C790.017 405.477 797.761 412.303 797.761 425.956C797.761 432.44 795.613 437.655 791.316 441.6C787.019 445.526 781.257 447.489 774.031 447.489H762.4ZM769.343 411.395V441.6H774.91C779.812 441.6 783.621 440.253 786.336 437.557C789.07 434.862 790.437 431.053 790.437 426.132C790.437 416.307 785.349 411.395 775.173 411.395H769.343ZM829.105 434.335H808.656C808.734 437.108 809.584 439.247 811.205 440.751C812.845 442.255 815.091 443.007 817.943 443.007C821.146 443.007 824.086 442.05 826.761 440.135V445.614C824.027 447.333 820.414 448.192 815.922 448.192C811.507 448.192 808.041 446.835 805.521 444.12C803.021 441.385 801.771 437.548 801.771 432.606C801.771 427.938 803.148 424.139 805.902 421.21C808.675 418.26 812.113 416.786 816.215 416.786C820.316 416.786 823.49 418.104 825.736 420.741C827.982 423.378 829.105 427.04 829.105 431.727V434.335ZM822.543 429.53C822.523 427.089 821.947 425.194 820.814 423.846C819.681 422.479 818.119 421.796 816.127 421.796C814.173 421.796 812.513 422.509 811.146 423.934C809.798 425.36 808.968 427.225 808.656 429.53H822.543ZM860.42 417.489L848.818 447.489H841.465L830.42 417.489H837.802L844.453 438.466C844.961 440.009 845.273 441.356 845.39 442.509H845.478C845.654 441.063 845.927 439.755 846.298 438.583L853.271 417.489H860.42ZM888.98 434.335H868.531C868.609 437.108 869.459 439.247 871.08 440.751C872.72 442.255 874.966 443.007 877.818 443.007C881.021 443.007 883.961 442.05 886.636 440.135V445.614C883.902 447.333 880.289 448.192 875.797 448.192C871.382 448.192 867.916 446.835 865.396 444.12C862.896 441.385 861.646 437.548 861.646 432.606C861.646 427.938 863.023 424.139 865.777 421.21C868.55 418.26 871.988 416.786 876.09 416.786C880.191 416.786 883.365 418.104 885.611 420.741C887.857 423.378 888.98 427.04 888.98 431.727V434.335ZM882.418 429.53C882.398 427.089 881.822 425.194 880.689 423.846C879.556 422.479 877.994 421.796 876.002 421.796C874.048 421.796 872.388 422.509 871.021 423.934C869.673 425.36 868.843 427.225 868.531 429.53H882.418ZM901.281 447.489H894.455V403.075H901.281V447.489ZM922.459 448.192C917.83 448.192 914.129 446.796 911.355 444.003C908.601 441.19 907.224 437.469 907.224 432.841C907.224 427.802 908.66 423.866 911.531 421.034C914.422 418.202 918.308 416.786 923.191 416.786C927.879 416.786 931.531 418.163 934.148 420.917C936.765 423.671 938.074 427.489 938.074 432.372C938.074 437.157 936.658 440.995 933.826 443.885C931.013 446.757 927.224 448.192 922.459 448.192ZM922.781 422.206C920.125 422.206 918.025 423.134 916.482 424.989C914.939 426.844 914.168 429.403 914.168 432.665C914.168 435.809 914.949 438.29 916.511 440.106C918.074 441.903 920.164 442.802 922.781 442.802C925.457 442.802 927.507 441.913 928.933 440.135C930.379 438.358 931.101 435.829 931.101 432.548C931.101 429.247 930.379 426.698 928.933 424.901C927.507 423.104 925.457 422.206 922.781 422.206ZM950.931 443.065H950.814V461.288H944.017V417.489H950.814V422.762H950.931C953.256 418.778 956.654 416.786 961.127 416.786C964.935 416.786 967.904 418.124 970.033 420.8C972.162 423.475 973.226 427.069 973.226 431.581C973.226 436.581 972.025 440.585 969.623 443.593C967.22 446.6 963.939 448.104 959.779 448.104C955.951 448.104 953.002 446.425 950.931 443.065ZM950.756 431.229V434.95C950.756 437.137 951.449 438.993 952.836 440.516C954.242 442.04 956.019 442.802 958.168 442.802C960.687 442.802 962.66 441.825 964.086 439.872C965.531 437.899 966.254 435.155 966.254 431.639C966.254 428.69 965.58 426.385 964.232 424.725C962.904 423.046 961.097 422.206 958.812 422.206C956.39 422.206 954.437 423.065 952.953 424.784C951.488 426.503 950.756 428.651 950.756 431.229Z" fill="#F25022"/>
</g>
<path d="M-122.6 447.302V405.291H-110.471C-94.9828 405.291 -87.2386 412.117 -87.2386 425.769C-87.2386 432.253 -89.3871 437.468 -93.6839 441.414C-97.9808 445.339 -103.743 447.302 -110.969 447.302H-122.6ZM-115.657 411.208V441.414H-110.09C-105.188 441.414 -101.379 440.066 -98.6644 437.371C-95.93 434.675 -94.5628 430.867 -94.5628 425.945C-94.5628 416.121 -99.6507 411.208 -109.827 411.208H-115.657ZM-55.8949 434.148H-76.3441C-76.266 436.921 -75.4164 439.06 -73.7953 440.564C-72.1546 442.068 -69.9085 442.82 -67.057 442.82C-63.8539 442.82 -60.9144 441.863 -58.2386 439.949V445.427C-60.973 447.146 -64.5863 448.005 -69.0785 448.005C-73.4925 448.005 -76.9593 446.648 -79.4789 443.933C-81.9789 441.199 -83.2289 437.361 -83.2289 432.419C-83.2289 427.751 -81.8519 423.953 -79.098 421.023C-76.3246 418.074 -72.8871 416.599 -68.7855 416.599C-64.6839 416.599 -61.5101 417.917 -59.264 420.554C-57.0179 423.191 -55.8949 426.853 -55.8949 431.541V434.148ZM-62.4574 429.343C-62.4769 426.902 -63.0531 425.007 -64.1859 423.66C-65.3187 422.292 -66.8812 421.609 -68.8734 421.609C-70.8265 421.609 -72.4867 422.322 -73.8539 423.748C-75.2015 425.173 -76.0316 427.039 -76.3441 429.343H-62.4574ZM-24.5804 417.302L-36.182 447.302H-43.5355L-54.5804 417.302H-47.1976L-40.5472 438.279C-40.0394 439.822 -39.7269 441.169 -39.6097 442.322H-39.5218C-39.346 440.876 -39.0726 439.568 -38.7015 438.396L-31.7289 417.302H-24.5804ZM3.98013 434.148H-16.4691C-16.391 436.921 -15.5414 439.06 -13.9203 440.564C-12.2796 442.068 -10.0335 442.82 -7.18198 442.82C-3.97885 442.82 -1.0394 441.863 1.63638 439.949V445.427C-1.09799 447.146 -4.71127 448.005 -9.20346 448.005C-13.6175 448.005 -17.0843 446.648 -19.6039 443.933C-22.1039 441.199 -23.3539 437.361 -23.3539 432.419C-23.3539 427.751 -21.9769 423.953 -19.223 421.023C-16.4496 418.074 -13.0121 416.599 -8.91049 416.599C-4.80893 416.599 -1.6351 417.917 0.610992 420.554C2.85709 423.191 3.98013 426.853 3.98013 431.541V434.148ZM-2.58237 429.343C-2.6019 426.902 -3.17807 425.007 -4.31088 423.66C-5.4437 422.292 -7.0062 421.609 -8.99838 421.609C-10.9515 421.609 -12.6117 422.322 -13.9789 423.748C-15.3265 425.173 -16.1566 427.039 -16.4691 429.343H-2.58237ZM16.2809 447.302H9.45474V402.888H16.2809V447.302ZM37.4586 448.005C32.8297 448.005 29.1286 446.609 26.3551 443.816C23.6012 441.003 22.2243 437.283 22.2243 432.654C22.2243 427.615 23.6598 423.679 26.5309 420.847C29.4215 418.015 33.3083 416.599 38.1911 416.599C42.8786 416.599 46.5309 417.976 49.1481 420.73C51.7653 423.484 53.0739 427.302 53.0739 432.185C53.0739 436.97 51.6579 440.808 48.8258 443.699C46.0133 446.57 42.2243 448.005 37.4586 448.005ZM37.7809 422.019C35.1247 422.019 33.0251 422.947 31.4821 424.802C29.9391 426.658 29.1676 429.216 29.1676 432.478C29.1676 435.623 29.9489 438.103 31.5114 439.919C33.0739 441.716 35.1637 442.615 37.7809 442.615C40.4567 442.615 42.5075 441.726 43.9333 439.949C45.3786 438.171 46.1012 435.642 46.1012 432.361C46.1012 429.06 45.3786 426.511 43.9333 424.714C42.5075 422.917 40.4567 422.019 37.7809 422.019ZM65.9313 442.878H65.8141V461.101H59.0172V417.302H65.8141V422.576H65.9313C68.2555 418.591 71.654 416.599 76.1266 416.599C79.9352 416.599 82.904 417.937 85.0329 420.613C87.1618 423.289 88.2262 426.882 88.2262 431.394C88.2262 436.394 87.0251 440.398 84.6227 443.406C82.2204 446.414 78.9391 447.917 74.779 447.917C70.9508 447.917 68.0016 446.238 65.9313 442.878ZM65.7555 431.042V434.763C65.7555 436.951 66.4489 438.806 67.8356 440.33C69.2419 441.853 71.0192 442.615 73.1676 442.615C75.6872 442.615 77.6598 441.638 79.0856 439.685C80.5309 437.712 81.2536 434.968 81.2536 431.453C81.2536 428.503 80.5797 426.199 79.2321 424.539C77.904 422.859 76.0973 422.019 73.8122 422.019C71.3903 422.019 69.4372 422.878 67.9528 424.597C66.4879 426.316 65.7555 428.464 65.7555 431.042Z" fill="#F25022" fill-opacity="0.15"/>
<path d="M-152.768 355.852L-18.52 279.267L115.728 355.852V508.961L-18.52 585.546L-152.768 508.961V355.852Z" stroke="#F25022" stroke-opacity="0.15" stroke-width="6"/>
<path d="M318.4 194.489V152.477H330.529C346.017 152.477 353.761 159.303 353.761 172.956C353.761 179.44 351.613 184.655 347.316 188.6C343.019 192.526 337.257 194.489 330.031 194.489H318.4ZM325.343 158.395V188.6H330.91C335.812 188.6 339.621 187.253 342.336 184.557C345.07 181.862 346.437 178.053 346.437 173.132C346.437 163.307 341.349 158.395 331.173 158.395H325.343ZM385.105 181.335H364.656C364.734 184.108 365.584 186.247 367.205 187.751C368.845 189.255 371.091 190.007 373.943 190.007C377.146 190.007 380.086 189.05 382.761 187.135V192.614C380.027 194.333 376.414 195.192 371.922 195.192C367.507 195.192 364.041 193.835 361.521 191.12C359.021 188.385 357.771 184.548 357.771 179.606C357.771 174.938 359.148 171.139 361.902 168.21C364.675 165.26 368.113 163.786 372.215 163.786C376.316 163.786 379.49 165.104 381.736 167.741C383.982 170.378 385.105 174.04 385.105 178.727V181.335ZM378.543 176.53C378.523 174.089 377.947 172.194 376.814 170.846C375.681 169.479 374.119 168.796 372.127 168.796C370.173 168.796 368.513 169.509 367.146 170.934C365.798 172.36 364.968 174.225 364.656 176.53H378.543ZM416.42 164.489L404.818 194.489H397.465L386.42 164.489H393.802L400.453 185.466C400.961 187.009 401.273 188.356 401.39 189.509H401.478C401.654 188.063 401.927 186.755 402.298 185.583L409.271 164.489H416.42ZM444.98 181.335H424.531C424.609 184.108 425.459 186.247 427.08 187.751C428.72 189.255 430.966 190.007 433.818 190.007C437.021 190.007 439.961 189.05 442.636 187.135V192.614C439.902 194.333 436.289 195.192 431.797 195.192C427.382 195.192 423.916 193.835 421.396 191.12C418.896 188.385 417.646 184.548 417.646 179.606C417.646 174.938 419.023 171.139 421.777 168.21C424.55 165.26 427.988 163.786 432.09 163.786C436.191 163.786 439.365 165.104 441.611 167.741C443.857 170.378 444.98 174.04 444.98 178.727V181.335ZM438.418 176.53C438.398 174.089 437.822 172.194 436.689 170.846C435.556 169.479 433.994 168.796 432.002 168.796C430.048 168.796 428.388 169.509 427.021 170.934C425.673 172.36 424.843 174.225 424.531 176.53H438.418ZM457.281 194.489H450.455V150.075H457.281V194.489ZM478.459 195.192C473.83 195.192 470.129 193.796 467.355 191.003C464.601 188.19 463.224 184.469 463.224 179.841C463.224 174.802 464.66 170.866 467.531 168.034C470.422 165.202 474.308 163.786 479.191 163.786C483.879 163.786 487.531 165.163 490.148 167.917C492.765 170.671 494.074 174.489 494.074 179.372C494.074 184.157 492.658 187.995 489.826 190.885C487.013 193.757 483.224 195.192 478.459 195.192ZM478.781 169.206C476.125 169.206 474.025 170.134 472.482 171.989C470.939 173.844 470.168 176.403 470.168 179.665C470.168 182.809 470.949 185.29 472.511 187.106C474.074 188.903 476.164 189.802 478.781 189.802C481.457 189.802 483.507 188.913 484.933 187.135C486.379 185.358 487.101 182.829 487.101 179.548C487.101 176.247 486.379 173.698 484.933 171.901C483.507 170.104 481.457 169.206 478.781 169.206ZM506.931 190.065H506.814V208.288H500.017V164.489H506.814V169.762H506.931C509.256 165.778 512.654 163.786 517.127 163.786C520.935 163.786 523.904 165.124 526.033 167.8C528.162 170.475 529.226 174.069 529.226 178.581C529.226 183.581 528.025 187.585 525.623 190.593C523.22 193.6 519.939 195.104 515.779 195.104C511.951 195.104 509.002 193.425 506.931 190.065ZM506.756 178.229V181.95C506.756 184.137 507.449 185.993 508.836 187.516C510.242 189.04 512.019 189.802 514.168 189.802C516.687 189.802 518.66 188.825 520.086 186.872C521.531 184.899 522.254 182.155 522.254 178.639C522.254 175.69 521.58 173.385 520.232 171.725C518.904 170.046 517.097 169.206 514.812 169.206C512.39 169.206 510.437 170.065 508.953 171.784C507.488 173.503 506.756 175.651 506.756 178.229Z" fill="#F25022" fill-opacity="0.3"/>
<path d="M288.232 103.039L422.48 26.4538L556.728 103.039V256.148L422.48 332.733L288.232 256.148V103.039Z" stroke="#F25022" stroke-opacity="0.3" stroke-width="6"/>
<path d="M1206.4 194.489V152.477H1218.53C1234.02 152.477 1241.76 159.303 1241.76 172.956C1241.76 179.44 1239.61 184.655 1235.32 188.6C1231.02 192.526 1225.26 194.489 1218.03 194.489H1206.4ZM1213.34 158.395V188.6H1218.91C1223.81 188.6 1227.62 187.253 1230.34 184.557C1233.07 181.862 1234.44 178.053 1234.44 173.132C1234.44 163.307 1229.35 158.395 1219.17 158.395H1213.34ZM1273.11 181.335H1252.66C1252.73 184.108 1253.58 186.247 1255.2 187.751C1256.85 189.255 1259.09 190.007 1261.94 190.007C1265.15 190.007 1268.09 189.05 1270.76 187.135V192.614C1268.03 194.333 1264.41 195.192 1259.92 195.192C1255.51 195.192 1252.04 193.835 1249.52 191.12C1247.02 188.385 1245.77 184.548 1245.77 179.606C1245.77 174.938 1247.15 171.139 1249.9 168.21C1252.68 165.26 1256.11 163.786 1260.21 163.786C1264.32 163.786 1267.49 165.104 1269.74 167.741C1271.98 170.378 1273.11 174.04 1273.11 178.727V181.335ZM1266.54 176.53C1266.52 174.089 1265.95 172.194 1264.81 170.846C1263.68 169.479 1262.12 168.796 1260.13 168.796C1258.17 168.796 1256.51 169.509 1255.15 170.934C1253.8 172.36 1252.97 174.225 1252.66 176.53H1266.54ZM1304.42 164.489L1292.82 194.489H1285.46L1274.42 164.489H1281.8L1288.45 185.466C1288.96 187.009 1289.27 188.356 1289.39 189.509H1289.48C1289.65 188.063 1289.93 186.755 1290.3 185.583L1297.27 164.489H1304.42ZM1332.98 181.335H1312.53C1312.61 184.108 1313.46 186.247 1315.08 187.751C1316.72 189.255 1318.97 190.007 1321.82 190.007C1325.02 190.007 1327.96 189.05 1330.64 187.135V192.614C1327.9 194.333 1324.29 195.192 1319.8 195.192C1315.38 195.192 1311.92 193.835 1309.4 191.12C1306.9 188.385 1305.65 184.548 1305.65 179.606C1305.65 174.938 1307.02 171.139 1309.78 168.21C1312.55 165.26 1315.99 163.786 1320.09 163.786C1324.19 163.786 1327.36 165.104 1329.61 167.741C1331.86 170.378 1332.98 174.04 1332.98 178.727V181.335ZM1326.42 176.53C1326.4 174.089 1325.82 172.194 1324.69 170.846C1323.56 169.479 1321.99 168.796 1320 168.796C1318.05 168.796 1316.39 169.509 1315.02 170.934C1313.67 172.36 1312.84 174.225 1312.53 176.53H1326.42ZM1345.28 194.489H1338.45V150.075H1345.28V194.489ZM1366.46 195.192C1361.83 195.192 1358.13 193.796 1355.36 191.003C1352.6 188.19 1351.22 184.469 1351.22 179.841C1351.22 174.802 1352.66 170.866 1355.53 168.034C1358.42 165.202 1362.31 163.786 1367.19 163.786C1371.88 163.786 1375.53 165.163 1378.15 167.917C1380.77 170.671 1382.07 174.489 1382.07 179.372C1382.07 184.157 1380.66 187.995 1377.83 190.885C1375.01 193.757 1371.22 195.192 1366.46 195.192ZM1366.78 169.206C1364.12 169.206 1362.03 170.134 1360.48 171.989C1358.94 173.844 1358.17 176.403 1358.17 179.665C1358.17 182.809 1358.95 185.29 1360.51 187.106C1362.07 188.903 1364.16 189.802 1366.78 189.802C1369.46 189.802 1371.51 188.913 1372.93 187.135C1374.38 185.358 1375.1 182.829 1375.1 179.548C1375.1 176.247 1374.38 173.698 1372.93 171.901C1371.51 170.104 1369.46 169.206 1366.78 169.206ZM1394.93 190.065H1394.81V208.288H1388.02V164.489H1394.81V169.762H1394.93C1397.26 165.778 1400.65 163.786 1405.13 163.786C1408.94 163.786 1411.9 165.124 1414.03 167.8C1416.16 170.475 1417.23 174.069 1417.23 178.581C1417.23 183.581 1416.03 187.585 1413.62 190.593C1411.22 193.6 1407.94 195.104 1403.78 195.104C1399.95 195.104 1397 193.425 1394.93 190.065ZM1394.76 178.229V181.95C1394.76 184.137 1395.45 185.993 1396.84 187.516C1398.24 189.04 1400.02 189.802 1402.17 189.802C1404.69 189.802 1406.66 188.825 1408.09 186.872C1409.53 184.899 1410.25 182.155 1410.25 178.639C1410.25 175.69 1409.58 173.385 1408.23 171.725C1406.9 170.046 1405.1 169.206 1402.81 169.206C1400.39 169.206 1398.44 170.065 1396.95 171.784C1395.49 173.503 1394.76 175.651 1394.76 178.229Z" fill="#F25022" fill-opacity="0.15"/>
<path d="M1176.23 103.039L1310.48 26.4538L1444.73 103.039V256.148L1310.48 332.733L1176.23 256.148V103.039Z" stroke="#F25022" stroke-opacity="0.15" stroke-width="6"/>
<defs>
<filter id="filter0_d" x="407.232" y="252.813" width="324.495" height="363.187" filterUnits="userSpaceOnUse" color-interpolation-filters="sRGB">
<feFlood flood-opacity="0" result="BackgroundImageFix"/>
<feColorMatrix in="SourceAlpha" type="matrix" values="0 0 0 0 0 0 0 0 0 0 0 0 0 0 0 0 0 0 127 0"/>
<feOffset dy="2"/>
<feGaussianBlur stdDeviation="12.5"/>
<feColorMatrix type="matrix" values="0 0 0 0 0 0 0 0 0 0 0 0 0 0 0 0 0 0 0.4 0"/>
<feBlend mode="normal" in2="BackgroundImageFix" result="effect1_dropShadow"/>
<feBlend mode="normal" in="SourceGraphic" in2="effect1_dropShadow" result="shape"/>
</filter>
<filter id="filter1_d" x="554.392" y="0" width="324.495" height="363.187" filterUnits="userSpaceOnUse" color-interpolation-filters="sRGB">
<feFlood flood-opacity="0" result="BackgroundImageFix"/>
<feColorMatrix in="SourceAlpha" type="matrix" values="0 0 0 0 0 0 0 0 0 0 0 0 0 0 0 0 0 0 127 0"/>
<feOffset dy="2"/>
<feGaussianBlur stdDeviation="12.5"/>
<feColorMatrix type="matrix" values="0 0 0 0 0 0 0 0 0 0 0 0 0 0 0 0 0 0 0.4 0"/>
<feBlend mode="normal" in2="BackgroundImageFix" result="effect1_dropShadow"/>
<feBlend mode="normal" in="SourceGraphic" in2="effect1_dropShadow" result="shape"/>
</filter>
<filter id="filter2_d" x="704.232" y="253" width="324.495" height="363.187" filterUnits="userSpaceOnUse" color-interpolation-filters="sRGB">
<feFlood flood-opacity="0" result="BackgroundImageFix"/>
<feColorMatrix in="SourceAlpha" type="matrix" values="0 0 0 0 0 0 0 0 0 0 0 0 0 0 0 0 0 0 127 0"/>
<feOffset dy="2"/>
<feGaussianBlur stdDeviation="12.5"/>
<feColorMatrix type="matrix" values="0 0 0 0 0 0 0 0 0 0 0 0 0 0 0 0 0 0 0.4 0"/>
<feBlend mode="normal" in2="BackgroundImageFix" result="effect1_dropShadow"/>
<feBlend mode="normal" in="SourceGraphic" in2="effect1_dropShadow" result="shape"/>
</filter>
</defs>
</svg>
