<svg viewBox="0 0 243 269" fill="none" xmlns="http://www.w3.org/2000/svg">
<g filter="url(#filter0_d)">
<path d="M28.8042 79.3347L121.5 26.4538L214.196 79.3347V185.034L121.5 237.915L28.8042 185.034V79.3347Z" fill="white" stroke="#F25022" stroke-width="6"/>
<path d="M115.116 113.99L105.521 149H98.9541L92.2891 124.513C92.0124 123.471 91.8415 122.332 91.7764 121.095H91.6787C91.5973 122.25 91.402 123.373 91.0928 124.464L84.4033 149H77.6895L67.8994 113.99H74.2715L80.6191 139.625C80.8796 140.699 81.0423 141.822 81.1074 142.994H81.2295C81.2946 142.164 81.5225 141.041 81.9131 139.625L89.0908 113.99H95.0723L101.713 139.82C101.941 140.699 102.112 141.741 102.226 142.945H102.323C102.372 142.132 102.559 141.057 102.885 139.723L109.11 113.99H115.116ZM141.557 149H135.893V135.328C135.893 130.38 134.241 127.906 130.937 127.906C129.276 127.906 127.877 128.622 126.737 130.055C125.598 131.487 125.028 133.318 125.028 135.548V149H119.34V111.988H125.028V128.15H125.126C127.014 124.993 129.716 123.414 133.231 123.414C138.782 123.414 141.557 126.808 141.557 133.595V149ZM159.525 149.586C155.668 149.586 152.584 148.422 150.272 146.095C147.978 143.751 146.83 140.65 146.83 136.793C146.83 132.594 148.026 129.314 150.419 126.954C152.828 124.594 156.067 123.414 160.136 123.414C164.042 123.414 167.086 124.562 169.267 126.856C171.448 129.151 172.538 132.333 172.538 136.402C172.538 140.39 171.358 143.588 168.998 145.997C166.654 148.39 163.497 149.586 159.525 149.586ZM159.794 127.931C157.58 127.931 155.831 128.704 154.545 130.25C153.259 131.796 152.616 133.928 152.616 136.646C152.616 139.267 153.267 141.334 154.569 142.848C155.871 144.345 157.613 145.094 159.794 145.094C162.024 145.094 163.733 144.353 164.921 142.872C166.125 141.391 166.728 139.283 166.728 136.549C166.728 133.798 166.125 131.674 164.921 130.177C163.733 128.679 162.024 127.931 159.794 127.931Z" fill="#F25022"/>
</g>
<defs>
<filter id="filter0_d" x="-14" y="0" width="271" height="268.369" filterUnits="userSpaceOnUse" color-interpolation-filters="sRGB">
<feFlood flood-opacity="0" result="BackgroundImageFix"/>
<feColorMatrix in="SourceAlpha" type="matrix" values="0 0 0 0 0 0 0 0 0 0 0 0 0 0 0 0 0 0 127 0"/>
<feOffset dy="2"/>
<feGaussianBlur stdDeviation="12.5"/>
<feColorMatrix type="matrix" values="0 0 0 0 0 0 0 0 0 0 0 0 0 0 0 0 0 0 0.35 0"/>
<feBlend mode="normal" in2="BackgroundImageFix" result="effect1_dropShadow"/>
<feBlend mode="normal" in="SourceGraphic" in2="effect1_dropShadow" result="shape"/>
</filter>
</defs>
</svg>