<svg viewBox="0 0 243 268" fill="none" xmlns="http://www.w3.org/2000/svg">
<g filter="url(#filter0_d)">
<path d="M28.8042 79.2439L121.5 26.4524L214.196 79.2439V184.756L121.5 237.548L28.8042 184.756V79.2439Z" fill="black" stroke="#00A4EF" stroke-width="6"/>
<path d="M115.338 116.99L105.743 152H99.1758L92.5107 127.513C92.234 126.471 92.0632 125.332 91.998 124.095H91.9004C91.819 125.25 91.6237 126.373 91.3145 127.464L84.625 152H77.9111L68.1211 116.99H74.4932L80.8408 142.625C81.1012 143.699 81.264 144.822 81.3291 145.994H81.4512C81.5163 145.164 81.7441 144.041 82.1348 142.625L89.3125 116.99H95.2939L101.935 142.82C102.162 143.699 102.333 144.741 102.447 145.945H102.545C102.594 145.132 102.781 144.057 103.106 142.723L109.332 116.99H115.338ZM141.778 152H136.114V138.328C136.114 133.38 134.462 130.906 131.158 130.906C129.498 130.906 128.098 131.622 126.959 133.055C125.82 134.487 125.25 136.318 125.25 138.548V152H119.562V114.988H125.25V131.15H125.348C127.236 127.993 129.938 126.414 133.453 126.414C139.003 126.414 141.778 129.808 141.778 136.595V152ZM170.318 127L159.039 156.004C156.695 161.18 153.408 163.768 149.176 163.768C147.988 163.768 146.995 163.662 146.197 163.45V158.738C147.092 159.031 147.906 159.178 148.639 159.178C150.755 159.178 152.333 158.136 153.375 156.053L155.06 151.951L145.123 127H151.397L157.354 145.164C157.42 145.392 157.566 145.994 157.794 146.971H157.916C157.997 146.596 158.144 146.01 158.355 145.213L164.605 127H170.318Z" fill="#00A4EF"/>
</g>
<defs>
<filter id="filter0_d" x="-14" y="0" width="271" height="268" filterUnits="userSpaceOnUse" color-interpolation-filters="sRGB">
<feFlood flood-opacity="0" result="BackgroundImageFix"/>
<feColorMatrix in="SourceAlpha" type="matrix" values="0 0 0 0 0 0 0 0 0 0 0 0 0 0 0 0 0 0 127 0"/>
<feOffset dy="2"/>
<feGaussianBlur stdDeviation="12.5"/>
<feColorMatrix type="matrix" values="0 0 0 0 0 0 0 0 0 0 0 0 0 0 0 0 0 0 0.35 0"/>
<feBlend mode="normal" in2="BackgroundImageFix" result="effect1_dropShadow"/>
<feBlend mode="normal" in="SourceGraphic" in2="effect1_dropShadow" result="shape"/>
</filter>
</defs>
</svg>